<?xml version="1.0" encoding="UTF-8" standalone="no"?>
<svg
        xmlns:dc="http://purl.org/dc/elements/1.1/"
        xmlns:cc="http://creativecommons.org/ns#"
        xmlns:rdf="http://www.w3.org/1999/02/22-rdf-syntax-ns#"
        xmlns:sodipodi="http://sodipodi.sourceforge.net/DTD/sodipodi-0.dtd"
        xmlns:inkscape="http://www.inkscape.org/namespaces/inkscape"
        xmlns="http://www.w3.org/2000/svg"
        inkscape:version="1.0 (4035a4f, 2020-05-01)"
        sodipodi:docname="my-apps2.svg"
        xml:space="preserve"
        style="enable-background:new 0 0 42.125 42.125;"
        viewBox="0 0 42.125 42.125"
        height="42.125px"
        width="42.125px"
        y="0px"
        x="0px"
        id="Capa_1"
        version="1.1"><metadata
   id="metadata54"><rdf:RDF><cc:Work
       rdf:about=""><dc:format>image/svg+xml</dc:format><dc:type
        rdf:resource="http://purl.org/dc/dcmitype/StillImage"/></cc:Work></rdf:RDF></metadata>
    <defs
            id="defs52"/>
    <sodipodi:namedview
            inkscape:current-layer="Capa_1"
            inkscape:window-maximized="0"
            inkscape:window-y="23"
            inkscape:window-x="0"
            inkscape:cy="21.0625"
            inkscape:cx="21.0625"
            inkscape:zoom="17.448071"
            showgrid="false"
            id="namedview50"
            inkscape:window-height="925"
            inkscape:window-width="1478"
            inkscape:pageshadow="2"
            inkscape:pageopacity="0"
            guidetolerance="10"
            gridtolerance="10"
            objecttolerance="10"
            borderopacity="1"
            bordercolor="#666666"
            pagecolor="#ffffff"/>
    <g
            id="g17">
	<g
            id="Layer_47_27_">
		<g
                id="g14">
			<path
                    id="path10"
                    d="M32.007,21.691v15.338h10.117V21.691H32.007z M37.269,22.326c0.121,0,0.221,0.101,0.221,0.221     c0,0.121-0.1,0.221-0.221,0.221s-0.221-0.1-0.221-0.221C37.048,22.427,37.148,22.326,37.269,22.326z M35.958,23.062h2.623v0.211     h-2.623V23.062z M37.183,36.367c-0.293,0-0.525-0.236-0.525-0.527c0-0.288,0.232-0.522,0.525-0.522     c0.289,0,0.525,0.234,0.525,0.522C37.708,36.131,37.472,36.367,37.183,36.367z M40.662,34.561     c-2.367,0.013-6.016,0.021-7.189,0.012V24.027l7.189-0.001V34.561z"
                    fill="#FF8C00"/>
            <polygon
                    id="polygon12"
                    points="8.712,25.873 2.797,25.873 2.797,10.094 2.782,10.094 2.782,7.876 35.25,7.876 35.25,20.855 38.033,20.855     38.033,5.096 0,5.096 0,10.094 0,13.786 0,25.873 0,29.36 0,29.469 10.422,29.469 10.422,29.461 15.523,29.461 15.523,31.03      15.505,31.03 8.712,31.03 7.566,31.03 7.566,32.324 8.712,32.324 15.505,32.324 30.13,32.324 30.13,31.03 22.191,31.03      22.191,29.461 31.019,29.461 31.019,25.873 10.422,25.873    "
                    fill="#00bfff"/>
		</g>
	</g>
</g>
    <g
            id="g19">
</g>
    <g
            id="g21">
</g>
    <g
            id="g23">
</g>
    <g
            id="g25">
</g>
    <g
            id="g27">
</g>
    <g
            id="g29">
</g>
    <g
            id="g31">
</g>
    <g
            id="g33">
</g>
    <g
            id="g35">
</g>
    <g
            id="g37">
</g>
    <g
            id="g39">
</g>
    <g
            id="g41">
</g>
    <g
            id="g43">
</g>
    <g
            id="g45">
</g>
    <g
            id="g47">
</g>
    <rect
            rx="0"
            y="11.577211"
            x="5.330102"
            height="3.5534019"
            width="23.727551"
            id="rect62"
            style="opacity:0.996785;fill:#E4E7ED;stroke-width:0.995035"/>
    <rect
            style="opacity:0.996785;fill:#E4E7ED;stroke-width:0.84703"
            id="rect62-8"
            width="17.193876"
            height="3.5534019"
            x="5.2727895"
            y="17.767008"
            rx="0"/>
    <rect
            rx="0"
            y="25.446938"
            x="34.101189"
            height="1.8340142"
            width="5.9605432"
            id="rect62-8-7"
            style="opacity:0.996785;fill:#E4E7ED;stroke-width:0.35829"/>
    <rect
            style="opacity:0.996785;fill:#E4E7ED;stroke-width:0.287578"
            id="rect62-8-7-9"
            width="3.8399649"
            height="1.8340142"
            x="34.101192"
            y="28.42721"
            rx="0"/>
    <rect
            style="opacity:0.996785;fill:#E4E7ED;stroke-width:0.35829"
            id="rect62-8-7-8"
            width="5.9605432"
            height="1.8340142"
            x="34.101192"
            y="31.40748"
            rx="0"/></svg>
