<?xml version="1.0" encoding="UTF-8" standalone="no"?>
<svg
		x="0px"
		y="0px"
		width="100px"
		height="100px"
		viewBox="0 0 100 100"
		enable-background="new 0 0 100 100"
		xml:space="preserve"
		version="1.1"
		id="svg73"
		sodipodi:docname="avatar-placeholder.svg"
		inkscape:version="1.2 (dc2aeda, 2022-05-15)"
		xmlns:inkscape="http://www.inkscape.org/namespaces/inkscape"
		xmlns:sodipodi="http://sodipodi.sourceforge.net/DTD/sodipodi-0.dtd"
		xmlns="http://www.w3.org/2000/svg"
		xmlns:svg="http://www.w3.org/2000/svg"><defs
   id="defs77" /><sodipodi:namedview
		id="namedview75"
		pagecolor="#ffffff"
		bordercolor="#000000"
		borderopacity="0.25"
		inkscape:showpageshadow="2"
		inkscape:pageopacity="0.0"
		inkscape:pagecheckerboard="0"
		inkscape:deskcolor="#d1d1d1"
		showgrid="false"
		inkscape:zoom="2.0460408"
		inkscape:cx="-7.0868576"
		inkscape:cy="47.408634"
		inkscape:window-width="1436"
		inkscape:window-height="724"
		inkscape:window-x="0"
		inkscape:window-y="38"
		inkscape:window-maximized="0"
		inkscape:current-layer="svg73" />
	<rect
			style="fill:#e6e6e6"
			id="rect289"
			width="100.68225"
			height="99.704758"
			x="0"
			y="0.48874879" /><g
			opacity="0.5"
			id="g71">
	<g
			id="g65">
		<path
				d="M80,71.2V74c0,3.3-2.7,6-6,6H26c-3.3,0-6-2.7-6-6v-2.8c0-7.3,8.5-11.7,16.5-15.2c0.3-0.1,0.5-0.2,0.8-0.4    c0.6-0.3,1.3-0.3,1.9,0.1C42.4,57.8,46.1,59,50,59s7.6-1.2,10.8-3.2c0.6-0.4,1.3-0.4,1.9-0.1c0.3,0.1,0.5,0.2,0.8,0.4    C71.5,59.5,80,63.9,80,71.2z"
				id="path63" />
	</g>
		<g
				id="g69">
		<ellipse
				cx="50"
				cy="36.5"
				rx="14.9"
				ry="16.5"
				id="ellipse67" />
	</g>
</g>
	<rect
			style="fill:#cccccc"
			id="rect395"
			width="2.4437439"
			height="0.48874879"
			x="82.598549"
			y="59.627354" /></svg>
