<svg height="512pt" viewBox="-79 0 512 512" width="512pt" xmlns="http://www.w3.org/2000/svg">
    <path d="m353.101562 485.515625h-353.101562v-485.515625h273.65625l79.445312 79.449219zm0 0" fill="#ffffff"/>

    <path d="m0 353.101562h353.101562v158.898438h-353.101562zm0 0" fill="#4e74ba"/>
    <path d="m273.65625 211.863281c0 53.628907-43.476562 97.101563-97.105469 97.101563-53.628906 0-97.101562-43.472656-97.101562-97.101563 0-53.628906 43.472656-97.105469 97.101562-97.105469 53.628907 0 97.105469 43.476563 97.105469 97.105469zm0 0"
          fill="#fff"/>
    <path d="m211.863281 211.863281-52.964843 35.308594v-70.621094zm0 0" fill="#4f75ba"/>
    <g fill="#fff">
        <path d="m176.550781 485.515625c-3.609375 0-6.847656-2.195313-8.199219-5.542969l-35.3125-88.273437c-1.808593-4.53125.390626-9.667969 4.917969-11.476563 4.539063-1.792968 9.667969.394532 11.476563 4.917969l27.117187 67.785156 27.109375-67.785156c1.820313-4.523437 6.941406-6.726563 11.476563-4.917969 4.527343 1.816406 6.726562 6.945313 4.917969 11.476563l-35.3125 88.273437c-1.339844 3.347656-4.578126 5.542969-8.191407 5.542969zm0 0"/>
        <path d="m273.65625 485.515625c-4.875 0-8.828125-3.953125-8.828125-8.824219v-88.277344c0-4.875 3.953125-8.828124 8.828125-8.828124 4.871094 0 8.828125 3.953124 8.828125 8.828124v88.277344c0 4.871094-3.957031 8.824219-8.828125 8.824219zm0 0"/>
        <path d="m300.136719 485.515625h-52.964844c-4.871094 0-8.828125-3.953125-8.828125-8.824219 0-4.875 3.957031-8.828125 8.828125-8.828125h52.964844c4.875 0 8.828125 3.953125 8.828125 8.828125 0 4.871094-3.953125 8.824219-8.828125 8.824219zm0 0"/>
        <path d="m300.136719 397.242188h-52.964844c-4.871094 0-8.828125-3.957032-8.828125-8.828126 0-4.875 3.957031-8.828124 8.828125-8.828124h52.964844c4.875 0 8.828125 3.953124 8.828125 8.828124 0 4.871094-3.953125 8.828126-8.828125 8.828126zm0 0"/>
        <path d="m105.929688 485.515625c-4.871094 0-8.828126-3.953125-8.828126-8.824219v-77.429687c0-1.109375-.90625-2.019531-2.019531-2.019531h-31.265625c-1.113281 0-2.023437.910156-2.023437 2.019531v77.429687c0 4.871094-3.953125 8.824219-8.828125 8.824219-4.871094 0-8.828125-3.953125-8.828125-8.824219v-77.429687c0-10.847657 8.828125-19.675781 19.679687-19.675781h31.265625c10.847657 0 19.675781 8.828124 19.675781 19.675781v77.429687c0 4.871094-3.953124 8.824219-8.828124 8.824219zm0 0"/>
        <path d="m105.929688 441.378906h-52.964844c-4.871094 0-8.828125-3.953125-8.828125-8.828125 0-4.871093 3.957031-8.828125 8.828125-8.828125h52.964844c4.875 0 8.828124 3.957032 8.828124 8.828125 0 4.875-3.953124 8.828125-8.828124 8.828125zm0 0"/>
    </g>
</svg>