<svg height="512pt" viewBox="-79 0 512 512" width="512pt" xmlns="http://www.w3.org/2000/svg">
    <path d="m353.101562 485.515625h-353.101562v-485.515625h273.65625l79.445312 79.449219zm0 0" fill="#ffffff"/>

    <path d="m0 353.101562h353.101562v158.898438h-353.101562zm0 0" fill="#ef3c54"/>
    <g fill="#fff">
        <path d="m278.070312 485.515625h-30.898437c-4.871094 0-8.828125-3.953125-8.828125-8.824219 0-4.875 3.957031-8.828125 8.828125-8.828125h30.898437c7.300782 0 13.238282-5.941406 13.238282-13.242187 0-7.300782-5.9375-13.242188-13.238282-13.242188h-8.828124c-17.039063 0-30.898438-13.859375-30.898438-30.894531 0-17.039063 13.859375-30.898437 30.898438-30.898437h30.894531c4.875 0 8.828125 3.953124 8.828125 8.828124 0 4.871094-3.953125 8.828126-8.828125 8.828126h-30.894531c-7.300782 0-13.242188 5.941406-13.242188 13.242187 0 7.296875 5.941406 13.238281 13.242188 13.238281h8.828124c17.035157 0 30.894532 13.859375 30.894532 30.898438 0 17.035156-13.859375 30.894531-30.894532 30.894531zm0 0"/>
        <path d="m105.929688 485.515625h-35.230469c-14.644531 0-26.5625-11.914063-26.5625-26.5625v-52.804687c0-14.644532 11.917969-26.5625 26.5625-26.5625h35.230469c4.875 0 8.828124 3.953124 8.828124 8.828124 0 4.871094-3.953124 8.828126-8.828124 8.828126h-35.230469c-4.90625 0-8.90625 4-8.90625 8.90625v52.804687c0 4.910156 4 8.910156 8.90625 8.910156h35.230469c4.875 0 8.828124 3.953125 8.828124 8.828125 0 4.871094-3.953124 8.824219-8.828124 8.824219zm0 0"/>
        <path d="m180.964844 485.515625h-30.894532c-4.875 0-8.828124-3.953125-8.828124-8.824219 0-4.875 3.953124-8.828125 8.828124-8.828125h30.894532c7.300781 0 13.242187-5.941406 13.242187-13.242187 0-7.300782-5.941406-13.242188-13.242187-13.242188h-8.828125c-17.035157 0-30.894531-13.859375-30.894531-30.894531 0-17.039063 13.859374-30.898437 30.894531-30.898437h30.898437c4.871094 0 8.828125 3.953124 8.828125 8.828124 0 4.871094-3.957031 8.828126-8.828125 8.828126h-30.898437c-7.300781 0-13.238281 5.941406-13.238281 13.242187 0 7.296875 5.9375 13.238281 13.238281 13.238281h8.828125c17.039062 0 30.898437 13.859375 30.898437 30.898438 0 17.035156-13.859375 30.894531-30.898437 30.894531zm0 0"/>
    </g>
    <path d="m123.585938 317.792969c-19.472657 0-35.308594-15.835938-35.308594-35.308594v-52.96875c0-9.734375-7.917969-17.652344-17.65625-17.652344-4.875 0-8.828125-3.957031-8.828125-8.828125 0-4.875 3.953125-8.828125 8.828125-8.828125 9.738281 0 17.65625-7.917969 17.65625-17.65625v-52.964843c0-19.472657 15.835937-35.308594 35.308594-35.308594 4.875 0 8.828124 3.953125 8.828124 8.824218 0 4.875-3.953124 8.828126-8.828124 8.828126-9.738282 0-17.65625 7.917968-17.65625 17.65625v52.964843c0 10.53125-4.632813 20.011719-11.976563 26.484375 7.34375 6.46875 11.976563 15.949219 11.976563 26.480469v52.96875c0 9.734375 7.917968 17.652344 17.65625 17.652344 4.875 0 8.828124 3.957031 8.828124 8.828125 0 4.875-3.953124 8.828125-8.828124 8.828125zm0 0"
          fill="#ef394f"/>
    <path d="m229.515625 317.792969c-4.871094 0-8.824219-3.953125-8.824219-8.828125 0-4.871094 3.953125-8.828125 8.824219-8.828125 9.738281 0 17.65625-7.917969 17.65625-17.652344v-52.96875c0-10.53125 4.636719-20.011719 11.980469-26.480469-7.34375-6.472656-11.980469-15.953125-11.980469-26.484375v-52.964843c0-9.738282-7.917969-17.65625-17.65625-17.65625-4.871094 0-8.824219-3.953126-8.824219-8.828126 0-4.871093 3.953125-8.824218 8.824219-8.824218 19.476563 0 35.3125 15.835937 35.3125 35.308594v52.964843c0 9.738281 7.917969 17.65625 17.65625 17.65625 4.871094 0 8.824219 3.953125 8.824219 8.828125 0 4.871094-3.953125 8.828125-8.824219 8.828125-9.738281 0-17.65625 7.917969-17.65625 17.652344v52.96875c0 19.472656-15.835937 35.308594-35.3125 35.308594zm0 0"
          fill="#ef394f"/>
</svg>