<svg height="512pt" viewBox="-79 0 512 512" width="512pt" xmlns="http://www.w3.org/2000/svg">
    <path d="m353.101562 485.515625h-353.101562v-485.515625h273.65625l79.445312 79.449219zm0 0" fill="#ffffff"/>

    <path d="m0 353.101562h353.101562v158.898438h-353.101562zm0 0" fill="#2c81e4"/>
    <path d="m300.136719 485.515625h-35.230469c-14.644531 0-26.5625-11.914063-26.5625-26.5625v-52.804687c0-14.644532 11.917969-26.5625 26.5625-26.5625h35.230469c4.875 0 8.828125 3.953124 8.828125 8.828124 0 4.871094-3.953125 8.828126-8.828125 8.828126h-35.230469c-4.917969 0-8.90625 4-8.90625 8.90625v52.804687c0 4.910156 3.988281 8.910156 8.90625 8.910156h35.230469c4.875 0 8.828125 3.953125 8.828125 8.828125 0 4.871094-3.953125 8.824219-8.828125 8.824219zm0 0"
          fill="#fff"/>
    <path d="m79.449219 132.414062h194.207031v167.722657h-194.207031zm0 0" fill="#2c81e4"/>
    <g fill="#fff">
        <path d="m203.035156 264.828125c-3.796875 0-7.167968-2.429687-8.378906-6.039063l-18.105469-54.324218-18.105469 54.324218c-1.207031 3.609376-4.582031 6.039063-8.375 6.039063-3.796874 0-7.167968-2.429687-8.378906-6.039063l-26.484375-79.449218c-1.542969-4.625.964844-9.621094 5.589844-11.164063 4.617187-1.546875 9.621094.953125 11.167969 5.578125l18.105468 54.332032 18.105469-54.324219c1.207031-3.609375 4.582031-6.039063 8.375-6.039063 3.796875 0 7.167969 2.429688 8.378907 6.039063l18.105468 54.324219 18.105469-54.324219c1.542969-4.625 6.566406-7.113281 11.167969-5.578125 4.625 1.542968 7.121094 6.539062 5.585937 11.167968l-26.484375 79.445313c-1.207031 3.601563-4.578125 6.03125-8.375 6.03125zm0 0"/>
        <path d="m61.792969 485.515625h-8.828125c-4.871094 0-8.828125-3.953125-8.828125-8.824219v-88.277344c0-4.875 3.957031-8.828124 8.828125-8.828124h8.828125c29.203125 0 52.964843 23.753906 52.964843 52.964843 0 29.210938-23.761718 52.964844-52.964843 52.964844zm0-17.652344h.089843zm0-70.621093v70.621093c19.472656 0 35.308593-15.839843 35.308593-35.3125 0-19.472656-15.835937-35.308593-35.308593-35.308593zm0 0"/>
        <path d="m185.378906 485.515625h-17.65625c-14.597656 0-26.480468-11.878906-26.480468-26.480469v-52.964844c0-14.601562 11.871093-26.484374 26.480468-26.484374h17.65625c14.601563 0 26.484375 11.882812 26.484375 26.484374v52.964844c0 14.601563-11.875 26.480469-26.484375 26.480469zm-17.65625-88.273437c-4.863281 0-8.824218 3.953124-8.824218 8.828124v52.964844c0 4.863282 3.953124 8.828125 8.824218 8.828125h17.65625c4.863282 0 8.828125-3.957031 8.828125-8.828125v-52.964844c0-4.867187-3.953125-8.828124-8.828125-8.828124zm0 0"/>
    </g>
</svg>