<svg height="512pt" viewBox="-79 0 512 512" width="512pt" xmlns="http://www.w3.org/2000/svg">
    <path d="m353.101562 485.515625h-353.101562v-485.515625h273.65625l79.445312 79.449219zm0 0" fill="#ffffff"/>

    <path d="m0 353.101562h353.101562v158.898438h-353.101562zm0 0" fill="#4d4799"/>
    <path d="m220.691406 282.484375c-1.15625 0-2.339844-.230469-3.472656-.726563-4.484375-1.914062-6.558594-7.105468-4.632812-11.589843l52.964843-123.585938c1.925781-4.464843 7.117188-6.558593 11.589844-4.632812 4.484375 1.914062 6.558594 7.105469 4.636719 11.589843l-52.964844 123.585938c-1.441406 3.355469-4.707031 5.359375-8.121094 5.359375zm0 0"
          fill="#4d4799"/>
    <g fill="#fff">
        <path d="m300.136719 441.378906h-52.964844c-4.871094 0-8.828125-3.953125-8.828125-8.828125v-44.136719c0-4.875 3.957031-8.828124 8.828125-8.828124h52.964844c4.875 0 8.828125 3.953124 8.828125 8.828124 0 4.871094-3.953125 8.828126-8.828125 8.828126h-44.136719v26.480468h44.136719c4.875 0 8.828125 3.957032 8.828125 8.828125 0 4.875-3.953125 8.828125-8.828125 8.828125zm0 0"/>
        <path d="m300.136719 485.515625h-52.964844c-4.871094 0-8.828125-3.953125-8.828125-8.824219v-44.140625c0-4.871093 3.957031-8.828125 8.828125-8.828125h52.964844c4.875 0 8.828125 3.957032 8.828125 8.828125 0 4.875-3.953125 8.828125-8.828125 8.828125h-44.136719v26.484375h44.136719c4.875 0 8.828125 3.953125 8.828125 8.828125 0 4.871094-3.953125 8.824219-8.828125 8.824219zm0 0"/>
        <path d="m150.058594 485.515625c-1.542969 0-3.113282-.40625-4.527344-1.261719-4.183594-2.507812-5.535156-7.925781-3.027344-12.109375l52.964844-88.277343c2.507812-4.183594 7.925781-5.535157 12.113281-3.027344 4.183594 2.507812 5.535157 7.925781 3.027344 12.113281l-52.964844 88.273437c-1.660156 2.761719-4.582031 4.289063-7.585937 4.289063zm0 0"/>
        <path d="m203.042969 485.515625c-3 0-5.921875-1.527344-7.574219-4.28125l-52.964844-88.273437c-2.507812-4.183594-1.15625-9.605469 3.027344-12.113282 4.175781-2.515625 9.605469-1.15625 12.113281 3.027344l52.964844 88.277344c2.507813 4.183594 1.15625 9.605468-3.027344 12.113281-1.421875.84375-2.992187 1.25-4.539062 1.25zm0 0"/>
        <path d="m105.929688 441.378906h-52.964844c-4.871094 0-8.828125-3.953125-8.828125-8.828125v-44.136719c0-4.875 3.957031-8.828124 8.828125-8.828124h52.964844c4.875 0 8.828124 3.953124 8.828124 8.828124 0 4.871094-3.953124 8.828126-8.828124 8.828126h-44.136719v26.480468h44.136719c4.875 0 8.828124 3.957032 8.828124 8.828125 0 4.875-3.953124 8.828125-8.828124 8.828125zm0 0"/>
        <path d="m105.929688 485.515625h-52.964844c-4.871094 0-8.828125-3.953125-8.828125-8.824219v-44.140625c0-4.871093 3.957031-8.828125 8.828125-8.828125h52.964844c4.875 0 8.828124 3.957032 8.828124 8.828125 0 4.875-3.953124 8.828125-8.828124 8.828125h-44.136719v26.484375h44.136719c4.875 0 8.828124 3.953125 8.828124 8.828125 0 4.871094-3.953124 8.824219-8.828124 8.824219zm0 0"/>
    </g>
    <path d="m132.414062 273.734375h-35.230468c-14.644532 0-26.5625-11.917969-26.5625-26.5625v-70.539063c0-14.648437 11.917968-26.5625 26.5625-26.5625h35.230468c4.871094 0 8.828126 3.953126 8.828126 8.828126 0 4.871093-3.957032 8.824218-8.828126 8.824218h-35.230468c-4.917969 0-8.90625 4-8.90625 8.910156v70.539063c0 4.910156 3.988281 8.90625 8.90625 8.90625h35.230468c4.871094 0 8.828126 3.957031 8.828126 8.828125 0 4.875-3.957032 8.828125-8.828126 8.828125zm0 0"
          fill="#4d4799"/>
    <path d="m176.550781 194.207031c-4.871093 0-8.828125-3.953125-8.828125-8.828125v-8.828125c0-4.871093 3.957032-8.828125 8.828125-8.828125 4.875 0 8.828125 3.957032 8.828125 8.828125v8.828125c0 4.875-3.953125 8.828125-8.828125 8.828125zm0 0"
          fill="#4d4799"/>
    <path d="m176.550781 256c-4.871093 0-8.828125-3.953125-8.828125-8.828125v-8.828125c0-4.871094 3.957032-8.828125 8.828125-8.828125 4.875 0 8.828125 3.957031 8.828125 8.828125v8.828125c0 4.875-3.953125 8.828125-8.828125 8.828125zm0 0"
          fill="#4d4799"/>
</svg>