<svg height="512pt" viewBox="-79 0 512 512" width="512pt" xmlns="http://www.w3.org/2000/svg">
    <path d="m353.101562 485.515625h-353.101562v-485.515625h273.65625l79.445312 79.449219zm0 0" fill="#ffffff"/>

    <path d="m0 353.101562h353.101562v158.898438h-353.101562zm0 0" fill="#454c6e"/>
    <g fill="#E4E7ED">
        <path d="m105.929688 432.550781c0 14.628907-11.855469 26.484375-26.480469 26.484375-14.628907 0-26.484375-11.855468-26.484375-26.484375 0-14.625 11.855468-26.480469 26.484375-26.480469 14.625 0 26.480469 11.855469 26.480469 26.480469zm0 0"/>
        <path d="m300.136719 432.550781c0 14.628907-11.855469 26.484375-26.480469 26.484375-14.628906 0-26.484375-11.855468-26.484375-26.484375 0-14.625 11.855469-26.480469 26.484375-26.480469 14.625 0 26.480469 11.855469 26.480469 26.480469zm0 0"/>
        <path d="m203.035156 432.550781c0 14.628907-11.855468 26.484375-26.484375 26.484375-14.625 0-26.480469-11.855468-26.480469-26.484375 0-14.625 11.855469-26.480469 26.480469-26.480469 14.628907 0 26.484375 11.855469 26.484375 26.480469zm0 0"/>

        <path d="m256 300.136719h-158.898438v-194.207031h105.933594l52.964844 52.96875zm0 0"/>
    </g>
    <path d="m256 158.898438h-52.964844v-52.96875zm0 0" fill="#afb6bb"/>
    <path d="m203.035156 238.34375h-52.964844c-4.875 0-8.828124-3.945312-8.828124-8.828125 0-4.878906 3.953124-8.824219 8.828124-8.824219h52.964844c4.871094 0 8.828125 3.945313 8.828125 8.824219 0 4.882813-3.957031 8.828125-8.828125 8.828125zm0 0"
          fill="#afb6bb"/>
    <path d="m203.035156 203.035156h-52.964844c-4.875 0-8.828124-3.945312-8.828124-8.828125 0-4.882812 3.953124-8.828125 8.828124-8.828125h52.964844c4.871094 0 8.828125 3.945313 8.828125 8.828125 0 4.882813-3.957031 8.828125-8.828125 8.828125zm0 0"
          fill="#afb6bb"/>
    <path d="m203.035156 273.65625h-52.964844c-4.875 0-8.828124-3.945312-8.828124-8.828125s3.953124-8.828125 8.828124-8.828125h52.964844c4.871094 0 8.828125 3.945312 8.828125 8.828125s-3.957031 8.828125-8.828125 8.828125zm0 0"
          fill="#afb6bb"/>
</svg>