<svg height="512pt" viewBox="-79 0 512 512" width="512pt" xmlns="http://www.w3.org/2000/svg">
    <path d="m353.101562 485.515625h-353.101562v-485.515625h273.65625l79.445312 79.449219zm0 0" fill="#ffffff"/>

    <path d="m0 353.101562h353.101562v158.898438h-353.101562zm0 0" fill="#25ae88"/>
    <g fill="#fff">
        <path d="m61.792969 114.757812h229.515625v203.035157h-229.515625zm0 0"/>
        <path d="m88.242188 485.515625h-17.542969c-14.644531 0-26.5625-11.914063-26.5625-26.5625v-52.804687c0-14.644532 11.917969-26.5625 26.5625-26.5625h35.230469c4.875 0 8.828124 3.945312 8.828124 8.828124 0 4.882813-3.953124 8.828126-8.828124 8.828126h-35.230469c-4.917969 0-8.90625 3.988281-8.90625 8.90625v52.804687c0 4.917969 3.988281 8.910156 8.90625 8.910156h17.550781c4.882812 0 8.851562-3.972656 8.851562-8.863281v-26.449219c0-4.878906 3.957032-8.828125 8.828126-8.828125 4.875 0 8.828124 3.949219 8.828124 8.828125v26.449219c0 14.617188-11.890624 26.515625-26.515624 26.515625zm0 0"/>
        <path d="m105.929688 441.378906h-17.652344c-4.875 0-8.828125-3.945312-8.828125-8.828125 0-4.878906 3.953125-8.828125 8.828125-8.828125h17.652344c4.875 0 8.828124 3.949219 8.828124 8.828125 0 4.882813-3.953124 8.828125-8.828124 8.828125zm0 0"/>
        <path d="m300.136719 397.242188h-52.964844c-4.871094 0-8.828125-3.945313-8.828125-8.828126 0-4.882812 3.957031-8.828124 8.828125-8.828124h52.964844c4.875 0 8.828125 3.945312 8.828125 8.828124 0 4.882813-3.953125 8.828126-8.828125 8.828126zm0 0"/>
        <path d="m300.136719 441.378906h-52.964844c-4.871094 0-8.828125-3.945312-8.828125-8.828125 0-4.878906 3.957031-8.828125 8.828125-8.828125h52.964844c4.875 0 8.828125 3.949219 8.828125 8.828125 0 4.882813-3.953125 8.828125-8.828125 8.828125zm0 0"/>
        <path d="m247.171875 485.515625c-4.871094 0-8.828125-3.945313-8.828125-8.824219v-88.277344c0-4.882812 3.957031-8.828124 8.828125-8.828124 4.875 0 8.828125 3.945312 8.828125 8.828124v88.277344c0 4.878906-3.953125 8.824219-8.828125 8.824219zm0 0"/>
        <path d="m176.550781 485.515625c-4.871093 0-8.828125-3.945313-8.828125-8.824219v-88.277344c0-4.882812 3.957032-8.828124 8.828125-8.828124 4.875 0 8.828125 3.945312 8.828125 8.828124v88.277344c0 4.878906-3.953125 8.824219-8.828125 8.824219zm0 0"/>
        <path d="m203.035156 485.515625h-52.964844c-4.875 0-8.828124-3.945313-8.828124-8.824219 0-4.882812 3.953124-8.828125 8.828124-8.828125h52.964844c4.871094 0 8.828125 3.945313 8.828125 8.828125 0 4.878906-3.957031 8.824219-8.828125 8.824219zm0 0"/>
        <path d="m203.035156 397.242188h-52.964844c-4.875 0-8.828124-3.945313-8.828124-8.828126 0-4.882812 3.953124-8.828124 8.828124-8.828124h52.964844c4.871094 0 8.828125 3.945312 8.828125 8.828124 0 4.882813-3.957031 8.828126-8.828125 8.828126zm0 0"/>
    </g>
    <path d="m211.863281 203.035156c-2.261719 0-4.519531-.867187-6.242187-2.585937-3.453125-3.453125-3.453125-9.03125 0-12.484375l26.484375-26.480469c3.441406-3.453125 9.039062-3.453125 12.480469 0 3.453124 3.449219 3.453124 9.027344 0 12.480469l-26.484376 26.484375c-1.71875 1.71875-3.980468 2.585937-6.238281 2.585937zm0 0"
          fill="#25ae88"/>
    <path d="m238.34375 176.550781c-2.257812 0-4.519531-.863281-6.238281-2.585937l-26.484375-26.480469c-3.453125-3.453125-3.453125-9.03125 0-12.484375 3.441406-3.453125 9.039062-3.453125 12.480468 0l26.484376 26.484375c3.453124 3.449219 3.453124 9.027344 0 12.480469-1.722657 1.722656-3.980469 2.585937-6.242188 2.585937zm0 0"
          fill="#25ae88"/>
    <path d="m114.757812 211.863281c-4.871093 0-8.828124-3.945312-8.828124-8.828125 0-24.339844 19.800781-44.136718 44.140624-44.136718h88.273438c4.875 0 8.828125 3.945312 8.828125 8.824218 0 4.882813-3.953125 8.828125-8.828125 8.828125h-88.273438c-14.601562 0-26.484374 11.882813-26.484374 26.484375 0 4.882813-3.953126 8.828125-8.828126 8.828125zm0 0"
          fill="#25ae88"/>
    <path d="m114.757812 273.65625c-2.257812 0-4.519531-.867188-6.242187-2.585938-3.449219-3.453124-3.449219-9.03125 0-12.484374l26.484375-26.480469c3.441406-3.453125 9.039062-3.453125 12.484375 0 3.449219 3.449219 3.449219 9.027343 0 12.480469l-26.484375 26.484374c-1.722656 1.71875-3.980469 2.585938-6.242188 2.585938zm0 0"
          fill="#25ae88"/>
    <path d="m141.242188 300.136719c-2.261719 0-4.519532-.863281-6.242188-2.585938l-26.484375-26.480469c-3.449219-3.453124-3.449219-9.03125 0-12.484374 3.445313-3.449219 9.042969-3.449219 12.484375 0l26.484375 26.484374c3.449219 3.449219 3.449219 9.03125 0 12.480469-1.722656 1.722657-3.984375 2.585938-6.242187 2.585938zm0 0"
          fill="#25ae88"/>
    <path d="m203.035156 273.65625h-88.277344c-4.871093 0-8.828124-3.945312-8.828124-8.828125s3.957031-8.828125 8.828124-8.828125h88.277344c14.601563 0 26.480469-11.882812 26.480469-26.484375 0-4.878906 3.957031-8.824219 8.828125-8.824219 4.875 0 8.828125 3.945313 8.828125 8.824219 0 24.339844-19.800781 44.140625-44.136719 44.140625zm0 0"
          fill="#25ae88"/>
</svg>