<svg height="512pt" viewBox="-79 0 512 512" width="512pt" xmlns="http://www.w3.org/2000/svg">
    <path d="m353.101562 485.515625h-353.101562v-485.515625h273.65625l79.445312 79.449219zm0 0" fill="#ffffff"/>
    <path d="m273.65625 211.863281c0 53.628907-43.476562 97.101563-97.105469 97.101563-53.628906 0-97.101562-43.472656-97.101562-97.101563 0-53.628906 43.472656-97.105469 97.101562-97.105469 53.628907 0 97.105469 43.476563 97.105469 97.105469zm0 0"
          fill="#7383bf"/>

    <path d="m0 353.101562h353.101562v158.898438h-353.101562zm0 0" fill="#454c6e"/>
    <g fill="#fff">
        <path d="m52.964844 485.515625c-4.871094 0-8.828125-3.945313-8.828125-8.824219v-88.277344c0-4.882812 3.957031-8.828124 8.828125-8.828124 4.875 0 8.828125 3.945312 8.828125 8.828124v88.277344c0 4.878906-3.953125 8.824219-8.828125 8.824219zm0 0"/>
        <path d="m105.929688 485.515625c-4.871094 0-8.828126-3.945313-8.828126-8.824219v-88.277344c0-4.882812 3.957032-8.828124 8.828126-8.828124 4.875 0 8.828124 3.945312 8.828124 8.828124v88.277344c0 4.878906-3.953124 8.824219-8.828124 8.824219zm0 0"/>
        <path d="m105.929688 441.378906h-52.964844c-4.871094 0-8.828125-3.945312-8.828125-8.828125 0-4.878906 3.957031-8.828125 8.828125-8.828125h52.964844c4.875 0 8.828124 3.949219 8.828124 8.828125 0 4.882813-3.953124 8.828125-8.828124 8.828125zm0 0"/>
        <path d="m194.207031 397.242188h-52.964843c-4.875 0-8.828126-3.945313-8.828126-8.828126 0-4.882812 3.953126-8.828124 8.828126-8.828124h52.964843c4.871094 0 8.828125 3.945312 8.828125 8.828124 0 4.882813-3.957031 8.828126-8.828125 8.828126zm0 0"/>
        <path d="m167.722656 485.515625c-4.871094 0-8.824218-3.945313-8.824218-8.824219v-88.277344c0-4.882812 3.953124-8.828124 8.824218-8.828124 4.875 0 8.828125 3.945312 8.828125 8.828124v88.277344c0 4.878906-3.953125 8.824219-8.828125 8.824219zm0 0"/>
        <path d="m300.136719 485.515625c-4.871094 0-8.828125-3.945313-8.828125-8.824219v-55.03125l-18.820313 32.925782c-3.140625 5.5-12.179687 5.5-15.324219 0l-18.820312-32.925782v55.03125c0 4.878906-3.953125 8.824219-8.828125 8.824219-4.871094 0-8.824219-3.945313-8.824219-8.824219v-88.277344c0-4 2.691406-7.511718 6.558594-8.535156 3.863281-1.023437 7.945312.667969 9.929688 4.15625l27.648437 48.375 27.648437-48.375c1.984376-3.488281 6.0625-5.191406 9.929688-4.15625 3.867188 1.023438 6.558594 4.535156 6.558594 8.535156v88.277344c0 4.878906-3.953125 8.824219-8.828125 8.824219zm0 0"/>
    </g>
    <path d="m176.550781 317.792969c-58.410156 0-105.929687-47.519531-105.929687-105.929688 0-58.414062 47.519531-105.933593 105.929687-105.933593 58.414063 0 105.933594 47.519531 105.933594 105.933593 0 58.410157-47.519531 105.929688-105.933594 105.929688zm0-194.207031c-48.675781 0-88.273437 39.601562-88.273437 88.277343s39.597656 88.273438 88.273437 88.273438 88.277344-39.597657 88.277344-88.273438-39.601563-88.277343-88.277344-88.277343zm0 0"
          fill="#556080"/>
    <path d="m176.550781 317.792969c-27.867187 0-35.308593-66.585938-35.308593-105.929688 0-39.347656 7.441406-105.933593 35.308593-105.933593 27.871094 0 35.3125 66.585937 35.3125 105.933593 0 39.34375-7.441406 105.929688-35.3125 105.929688zm-.371093-194.257813c-5.542969 2.460938-17.28125 34.980469-17.28125 88.328125 0 53.34375 11.738281 85.863281 18.023437 88.328125 5.542969-2.464844 17.285156-34.984375 17.285156-88.328125 0-53.347656-11.742187-85.867187-18.027343-88.328125zm0 0"
          fill="#556080"/>
    <path d="m273.65625 220.691406h-194.207031c-4.875 0-8.828125-3.949218-8.828125-8.828125 0-4.882812 3.953125-8.828125 8.828125-8.828125h194.207031c4.871094 0 8.828125 3.945313 8.828125 8.828125 0 4.878907-3.957031 8.828125-8.828125 8.828125zm0 0"
          fill="#556080"/>
</svg>