<svg height="512pt" viewBox="-79 0 512 512" width="512pt" xmlns="http://www.w3.org/2000/svg">
    <path d="m353.101562 485.515625h-353.101562v-485.515625h273.65625l79.445312 79.449219zm0 0" fill="#ffffff"/>

    <path d="m0 353.101562h353.101562v158.898438h-353.101562zm0 0" fill="#2c81e4"/>
    <g fill="#fff">
        <path d="m79.449219 141.242188h194.207031v158.894531h-194.207031zm0 0"/>
        <path d="m282.484375 485.515625h-17.65625c-14.601563 0-26.484375-11.878906-26.484375-26.480469v-52.964844c0-14.601562 11.875-26.484374 26.484375-26.484374h17.65625c14.597656 0 26.480469 11.882812 26.480469 26.484374v52.964844c0 14.601563-11.871094 26.480469-26.480469 26.480469zm-17.65625-88.273437c-4.863281 0-8.828125 3.953124-8.828125 8.828124v52.964844c0 4.863282 3.953125 8.828125 8.828125 8.828125h17.65625c4.863281 0 8.824219-3.957031 8.824219-8.828125v-52.964844c0-4.867187-3.953125-8.828124-8.824219-8.828124zm0 0"/>
        <path d="m203.035156 485.515625h-35.230468c-14.644532 0-26.5625-11.914063-26.5625-26.5625v-52.804687c0-14.644532 11.917968-26.5625 26.5625-26.5625h35.230468c4.871094 0 8.828125 3.953124 8.828125 8.828124 0 4.871094-3.957031 8.828126-8.828125 8.828126h-35.230468c-4.917969 0-8.90625 4-8.90625 8.90625v52.804687c0 4.910156 3.988281 8.910156 8.90625 8.910156h35.230468c4.871094 0 8.828125 3.953125 8.828125 8.828125 0 4.871094-3.957031 8.824219-8.828125 8.824219zm0 0"/>
        <path d="m105.929688 397.242188h-52.964844c-4.871094 0-8.828125-3.957032-8.828125-8.828126 0-4.875 3.957031-8.828124 8.828125-8.828124h52.964844c4.875 0 8.828124 3.953124 8.828124 8.828124 0 4.871094-3.953124 8.828126-8.828124 8.828126zm0 0"/>
        <path d="m105.929688 485.515625h-52.964844c-4.871094 0-8.828125-3.953125-8.828125-8.824219 0-4.875 3.957031-8.828125 8.828125-8.828125h52.964844c4.875 0 8.828124 3.953125 8.828124 8.828125 0 4.871094-3.953124 8.824219-8.828124 8.824219zm0 0"/>
        <path d="m79.449219 485.515625c-4.875 0-8.828125-3.953125-8.828125-8.824219v-88.277344c0-4.875 3.953125-8.828124 8.828125-8.828124 4.871093 0 8.828125 3.953124 8.828125 8.828124v88.277344c0 4.871094-3.957032 8.824219-8.828125 8.824219zm0 0"/>
    </g>
    <path d="m203.035156 185.378906h-52.964844c-4.875 0-8.828124-3.953125-8.828124-8.828125 0-4.871093 3.953124-8.828125 8.828124-8.828125h52.964844c4.871094 0 8.828125 3.957032 8.828125 8.828125 0 4.875-3.957031 8.828125-8.828125 8.828125zm0 0"
          fill="#2c81e4"/>
    <path d="m203.035156 273.65625h-52.964844c-4.875 0-8.828124-3.957031-8.828124-8.828125 0-4.875 3.953124-8.828125 8.828124-8.828125h52.964844c4.871094 0 8.828125 3.953125 8.828125 8.828125 0 4.871094-3.957031 8.828125-8.828125 8.828125zm0 0"
          fill="#2c81e4"/>
    <path d="m176.550781 273.65625c-4.871093 0-8.828125-3.957031-8.828125-8.828125v-88.277344c0-4.871093 3.957032-8.828125 8.828125-8.828125 4.875 0 8.828125 3.957032 8.828125 8.828125v88.277344c0 4.871094-3.953125 8.828125-8.828125 8.828125zm0 0"
          fill="#2c81e4"/>
</svg>