<svg height="512pt" viewBox="-79 0 512 512" width="512pt" xmlns="http://www.w3.org/2000/svg">
    <path d="m353.101562 485.515625h-353.101562v-485.515625h273.65625l79.445312 79.449219zm0 0" fill="#ffffff"/>
    <path d="m97.101562 273.65625h158.898438v17.652344h-158.898438zm0 0" fill="#e65b17"/>

    <path d="m0 353.101562h353.101562v158.898438h-353.101562zm0 0" fill="#e65b17"/>
    <g fill="#fff">
        <path d="m114.757812 485.515625c-4.871093 0-8.828124-3.953125-8.828124-8.824219v-55.03125l-18.820313 32.925782c-3.140625 5.5-12.179687 5.5-15.324219 0l-18.820312-32.925782v55.03125c0 4.871094-3.953125 8.824219-8.828125 8.824219-4.871094 0-8.828125-3.953125-8.828125-8.824219v-88.277344c0-4.007812 2.695312-7.503906 6.5625-8.527343 3.855468-1.050781 7.941406.679687 9.929687 4.148437l27.648438 48.375 27.648437-48.375c1.984375-3.476562 6.0625-5.191406 9.929688-4.148437 3.867187 1.023437 6.558594 4.519531 6.558594 8.527343v88.277344c0 4.871094-3.953126 8.824219-8.828126 8.824219zm0 0"/>
        <path d="m273.65625 485.515625c-3.613281 0-6.851562-2.195313-8.203125-5.542969l-35.308594-88.273437c-1.808593-4.53125.386719-9.667969 4.917969-11.476563 4.542969-1.792968 9.664062.394532 11.472656 4.917969l27.121094 67.785156 27.109375-67.785156c1.808594-4.53125 6.9375-6.71875 11.476563-4.917969 4.527343 1.816406 6.726562 6.945313 4.914062 11.476563l-35.308594 88.273437c-1.34375 3.347656-4.582031 5.542969-8.191406 5.542969zm0 0"/>
        <path d="m150.070312 485.515625c-4.875 0-8.828124-3.953125-8.828124-8.824219v-88.277344c0-4.875 3.953124-8.828124 8.828124-8.828124 4.871094 0 8.828126 3.953124 8.828126 8.828124v88.277344c0 4.871094-3.957032 8.824219-8.828126 8.824219zm0 0"/>
        <path d="m150.070312 441.378906c-2.527343 0-5.042968-1.085937-6.789062-3.175781-3.125-3.746094-2.613281-9.316406 1.128906-12.429687l52.964844-44.140626c3.742188-3.125 9.3125-2.613281 12.429688 1.132813 3.117187 3.742187 2.613281 9.3125-1.128907 12.429687l-52.964843 44.136719c-1.644532 1.375-3.648438 2.046875-5.640626 2.046875zm0 0"/>
        <path d="m203.035156 485.515625c-1.996094 0-4-.667969-5.648437-2.046875l-52.96875-44.136719c-3.742188-3.125-4.253907-8.6875-1.128907-12.429687 3.125-3.742188 8.6875-4.246094 12.429688-1.128906l52.964844 44.136718c3.742187 3.125 4.246094 8.6875 1.128906 12.429688-1.746094 2.089844-4.253906 3.175781-6.777344 3.175781zm0 0"/>
    </g>
    <path d="m61.792969 282.484375h229.515625v35.308594h-229.515625zm0 0" fill="#b74316"/>
    <path d="m250.855469 244.066406c-.40625.035156-.777344.121094-1.203125.121094-6.285156 0-10.308594-3.460938-12.15625-7.917969-7.574219-5.726562-7-19.339843 1.925781-23.65625l-17.566406-48.324219c-.566407.0625-1.105469.167969-1.714844.167969-5.796875 0-9.671875-2.9375-11.695313-6.882812-7.574218-5.84375-6.875-19.644531 2.332032-23.757813l-16.570313-45.539062h-35.308593l-16.421876 45.144531c10.753907 2.761719 12.457032 17.328125 5.191407 23.914063-2.03125 3.925781-5.90625 6.847656-11.679688 6.847656-1.648437 0-3.097656-.300782-4.441406-.730469l-17.988281 49.460937c12.765625 2.242188 14.035156 20.277344 3.910156 25.773438-2.214844 2.921875-5.675781 4.945312-10.453125 4.945312-1.625 0-3.042969-.292968-4.367187-.714843l-14.371094 39.566406h176.550781zm0 0"
          fill="#e65b17"/>
    <path d="m130.003906 167.722656h93.09375l-12.84375-35.308594h-67.40625zm0 0" fill="#fff"/>
    <path d="m101.121094 247.171875h150.863281l-12.835937-35.308594h-125.191407zm0 0" fill="#fff"/>
</svg>