<svg height="512pt" viewBox="-79 0 512 512" width="512pt" xmlns="http://www.w3.org/2000/svg">
    <path d="m353.101562 485.515625h-353.101562v-485.515625h273.65625l79.445312 79.449219zm0 0" fill="#ffffff"/>

    <path d="m0 353.101562h353.101562v158.898438h-353.101562zm0 0" fill="#b53438"/>
    <path d="m88.277344 123.585938h176.550781v176.550781h-176.550781zm0 0" fill="#b53438"/>
    <path d="m203.035156 211.863281-52.964844 35.308594v-70.621094zm0 0" fill="#fff"/>
    <path d="m70.621094 123.585938h35.308594v35.3125h-35.308594zm0 0" fill="#e1a02f"/>
    <path d="m70.621094 158.898438h35.308594v35.308593h-35.308594zm0 0" fill="#ad772a"/>
    <path d="m70.621094 194.207031h35.308594v35.308594h-35.308594zm0 0" fill="#e1a02f"/>
    <path d="m70.621094 229.515625h35.308594v35.3125h-35.308594zm0 0" fill="#ad772a"/>
    <path d="m70.621094 264.828125h35.308594v35.308594h-35.308594zm0 0" fill="#e1a02f"/>
    <path d="m247.171875 123.585938h35.3125v35.3125h-35.3125zm0 0" fill="#e1a02f"/>
    <path d="m247.171875 158.898438h35.3125v35.308593h-35.3125zm0 0" fill="#ad772a"/>
    <path d="m247.171875 194.207031h35.3125v35.308594h-35.3125zm0 0" fill="#e1a02f"/>
    <path d="m247.171875 229.515625h35.3125v35.3125h-35.3125zm0 0" fill="#ad772a"/>
    <path d="m247.171875 264.828125h35.3125v35.308594h-35.3125zm0 0" fill="#e1a02f"/>
    <g fill="#fff">
        <path d="m114.757812 485.515625c-4.871093 0-8.828124-3.953125-8.828124-8.824219v-55.03125l-18.820313 32.925782c-3.132813 5.5-12.191406 5.5-15.324219 0l-18.820312-32.925782v55.03125c0 4.871094-3.953125 8.824219-8.828125 8.824219-4.871094 0-8.828125-3.953125-8.828125-8.824219v-88.277344c0-4.007812 2.695312-7.503906 6.5625-8.527343 3.875-1.050781 7.941406.671875 9.929687 4.148437l27.648438 48.375 27.648437-48.375c1.984375-3.46875 6.046875-5.199218 9.929688-4.148437 3.867187 1.023437 6.558594 4.519531 6.558594 8.527343v88.277344c0 4.871094-3.953126 8.824219-8.828126 8.824219zm0 0"/>
        <path d="m273.65625 485.515625c-3.613281 0-6.851562-2.195313-8.203125-5.542969l-35.308594-88.273437c-1.808593-4.53125.386719-9.667969 4.917969-11.476563 4.535156-1.792968 9.664062.394532 11.472656 4.917969l27.121094 67.785156 27.109375-67.785156c1.816406-4.53125 6.9375-6.71875 11.476563-4.917969 4.527343 1.816406 6.726562 6.945313 4.914062 11.476563l-35.308594 88.273437c-1.34375 3.347656-4.582031 5.542969-8.191406 5.542969zm0 0"/>
        <path d="m185.378906 485.515625h-17.65625c-14.597656 0-26.480468-11.878906-26.480468-26.480469v-52.964844c0-14.601562 11.882812-26.484374 26.480468-26.484374h17.65625c14.601563 0 26.484375 11.882812 26.484375 26.484374v52.964844c0 14.601563-11.882812 26.480469-26.484375 26.480469zm-17.65625-88.273437c-4.863281 0-8.824218 3.953124-8.824218 8.828124v52.964844c0 4.863282 3.953124 8.828125 8.824218 8.828125h17.65625c4.863282 0 8.828125-3.957031 8.828125-8.828125v-52.964844c0-4.867187-3.953125-8.828124-8.828125-8.828124zm0 0"/>
    </g>
</svg>