<svg height="512pt" viewBox="-79 0 512 512" width="512pt" xmlns="http://www.w3.org/2000/svg">
    <path d="m353.101562 485.515625h-353.101562v-485.515625h273.65625l79.445312 79.449219zm0 0" fill="#ffffff"/>

    <path d="m0 353.101562h353.101562v158.898438h-353.101562zm0 0" fill="#82619a"/>
    <path d="m158.898438 485.515625c-4.875 0-8.828126-3.953125-8.828126-8.824219v-88.277344c0-4.875 3.953126-8.828124 8.828126-8.828124 4.871093 0 8.824218 3.953124 8.824218 8.828124v88.277344c0 4.871094-3.953125 8.824219-8.824218 8.824219zm0 0"
          fill="#fff"/>
    <path d="m185.378906 450.207031h-26.480468c-4.875 0-8.828126-3.953125-8.828126-8.828125v-52.964844c0-4.875 3.953126-8.828124 8.828126-8.828124h26.480468c19.472656 0 35.3125 15.835937 35.3125 35.3125 0 19.472656-15.839844 35.308593-35.3125 35.308593zm-17.65625-17.65625h17.65625c9.738282 0 17.65625-7.917969 17.65625-17.652343 0-9.738282-7.917968-17.65625-17.65625-17.65625h-17.65625zm0 0"
          fill="#fff"/>
    <g fill="#82619a">
        <path d="m123.585938 317.792969c-19.472657 0-35.308594-15.835938-35.308594-35.308594 0-19.476563 15.835937-35.3125 35.308594-35.3125 19.472656 0 35.3125 15.835937 35.3125 35.3125 0 19.472656-15.839844 35.308594-35.3125 35.308594zm0-52.964844c-9.738282 0-17.65625 7.917969-17.65625 17.65625 0 9.734375 7.917968 17.652344 17.65625 17.652344 9.738281 0 17.65625-7.917969 17.65625-17.652344 0-9.738281-7.917969-17.65625-17.65625-17.65625zm0 0"/>
        <path d="m211.863281 282.484375c-19.476562 0-35.3125-15.839844-35.3125-35.3125s15.835938-35.308594 35.3125-35.308594c19.472657 0 35.308594 15.835938 35.308594 35.308594s-15.835937 35.3125-35.308594 35.3125zm0-52.96875c-9.738281 0-17.65625 7.921875-17.65625 17.65625 0 9.738281 7.917969 17.65625 17.65625 17.65625 9.734375 0 17.652344-7.917969 17.652344-17.65625 0-9.734375-7.917969-17.65625-17.652344-17.65625zm0 0"/>
        <path d="m150.070312 291.308594c-4.875 0-8.828124-3.953125-8.828124-8.824219v-132.414063c0-4.875 3.953124-8.828124 8.828124-8.828124 4.871094 0 8.828126 3.953124 8.828126 8.828124v132.414063c0 4.871094-3.957032 8.824219-8.828126 8.824219zm0 0"/>
        <path d="m238.34375 256c-4.871094 0-8.828125-3.953125-8.828125-8.828125v-132.414063c0-4.871093 3.957031-8.828124 8.828125-8.828124 4.875 0 8.828125 3.957031 8.828125 8.828124v132.414063c0 4.875-3.953125 8.828125-8.828125 8.828125zm0 0"/>
        <path d="m150.070312 194.207031c-1.742187 0-3.46875-.511719-4.953124-1.519531-2.417969-1.640625-3.875-4.378906-3.875-7.308594v-35.308594c0-3.613281 2.195312-6.851562 5.542968-8.203124l88.277344-35.308594c2.726562-1.09375 5.796875-.761719 8.226562.890625 2.425782 1.640625 3.882813 4.378906 3.882813 7.308593v35.3125c0 3.609376-2.199219 6.847657-5.542969 8.199219l-88.277344 35.3125c-1.066406.421875-2.179687.625-3.28125.625zm8.828126-38.160156v16.292969l70.617187-28.246094v-16.296875zm79.445312-5.976563h.089844zm0 0"/>
    </g>
    <path d="m114.757812 485.515625c-4.871093 0-8.828124-3.953125-8.828124-8.824219v-55.03125l-18.820313 32.925782c-3.132813 5.5-12.191406 5.5-15.324219 0l-18.820312-32.925782v55.03125c0 4.871094-3.953125 8.824219-8.828125 8.824219-4.871094 0-8.828125-3.953125-8.828125-8.824219v-88.277344c0-4.007812 2.695312-7.503906 6.5625-8.527343 3.875-1.058594 7.941406.679687 9.929687 4.148437l27.648438 48.375 27.648437-48.375c1.984375-3.476562 6.035156-5.207031 9.929688-4.148437 3.867187 1.023437 6.558594 4.519531 6.558594 8.527343v88.277344c0 4.871094-3.953126 8.824219-8.828126 8.824219zm0 0"
          fill="#fff"/>
    <path d="m286.898438 441.378906h-30.898438c-4.871094 0-8.828125-3.953125-8.828125-8.828125 0-4.871093 3.957031-8.828125 8.828125-8.828125h30.898438c7.296874 0 13.238281-5.941406 13.238281-13.238281 0-7.300781-5.941407-13.242187-13.238281-13.242187h-30.898438c-4.871094 0-8.828125-3.957032-8.828125-8.828126 0-4.875 3.957031-8.828124 8.828125-8.828124h30.898438c17.035156 0 30.894531 13.859374 30.894531 30.898437 0 17.035156-13.859375 30.894531-30.894531 30.894531zm0 0"
          fill="#fff"/>
    <path d="m286.898438 485.515625h-30.898438c-4.871094 0-8.828125-3.953125-8.828125-8.824219 0-4.875 3.957031-8.828125 8.828125-8.828125h30.898438c7.296874 0 13.238281-5.941406 13.238281-13.242187 0-7.300782-5.941407-13.242188-13.238281-13.242188h-30.898438c-4.871094 0-8.828125-3.953125-8.828125-8.828125 0-4.871093 3.957031-8.828125 8.828125-8.828125h30.898438c17.035156 0 30.894531 13.859375 30.894531 30.898438 0 17.035156-13.859375 30.894531-30.894531 30.894531zm0 0"
          fill="#fff"/>
</svg>