<svg height="512pt" viewBox="-79 0 512 512" width="512pt" xmlns="http://www.w3.org/2000/svg">
    <path d="m353.101562 485.515625h-353.101562v-485.515625h273.65625l79.445312 79.449219zm0 0" fill="#ffffff"/>

    <path d="m0 353.101562h353.101562v158.898438h-353.101562zm0 0" fill="#ef394f"/>
    <g fill="#fff">
        <path d="m158.898438 485.515625c-4.875 0-8.828126-3.953125-8.828126-8.824219v-88.277344c0-4.875 3.953126-8.828124 8.828126-8.828124 4.871093 0 8.824218 3.953124 8.824218 8.828124v88.277344c0 4.871094-3.953125 8.824219-8.824218 8.824219zm0 0"/>
        <path d="m185.378906 450.207031h-26.480468c-4.875 0-8.828126-3.953125-8.828126-8.828125v-52.964844c0-4.875 3.953126-8.828124 8.828126-8.828124h26.480468c19.472656 0 35.3125 15.835937 35.3125 35.3125 0 19.472656-15.839844 35.308593-35.3125 35.308593zm-17.65625-17.65625h17.65625c9.738282 0 17.65625-7.917969 17.65625-17.652343 0-9.738282-7.917968-17.65625-17.65625-17.65625h-17.65625zm0 0"/>
        <path d="m114.757812 485.515625c-4.871093 0-8.828124-3.953125-8.828124-8.824219v-55.03125l-18.820313 32.925782c-3.132813 5.5-12.191406 5.5-15.324219 0l-18.820312-32.925782v55.03125c0 4.871094-3.953125 8.824219-8.828125 8.824219-4.871094 0-8.828125-3.953125-8.828125-8.824219v-88.277344c0-4.007812 2.695312-7.503906 6.5625-8.527343 3.875-1.058594 7.941406.679687 9.929687 4.148437l27.648438 48.375 27.648437-48.375c1.984375-3.476562 6.046875-5.207031 9.929688-4.148437 3.867187 1.023437 6.558594 4.519531 6.558594 8.527343v88.277344c0 4.871094-3.953126 8.824219-8.828126 8.824219zm0 0"/>
        <path d="m256 441.378906c-1.09375 0-2.199219-.203125-3.273438-.636718-4.53125-1.816407-6.726562-6.945313-4.917968-11.472657l17.65625-44.140625c1.808594-4.519531 6.929687-6.726562 11.472656-4.914062 4.53125 1.816406 6.726562 6.945312 4.917969 11.472656l-17.65625 44.140625c-1.382813 3.449219-4.703125 5.550781-8.199219 5.550781zm0 0"/>
        <path d="m308.964844 441.378906h-52.964844c-4.871094 0-8.828125-3.953125-8.828125-8.828125 0-4.871093 3.957031-8.828125 8.828125-8.828125h52.964844c4.875 0 8.828125 3.957032 8.828125 8.828125 0 4.875-3.953125 8.828125-8.828125 8.828125zm0 0"/>
        <path d="m291.308594 485.515625c-4.871094 0-8.824219-3.953125-8.824219-8.824219v-61.792968c0-4.875 3.953125-8.828126 8.824219-8.828126 4.875 0 8.828125 3.953126 8.828125 8.828126v61.792968c0 4.871094-3.953125 8.824219-8.828125 8.824219zm0 0"/>
    </g>
    <path d="m52.964844 141.242188h247.171875v158.894531h-247.171875zm0 0" fill="#ef394f"/>
    <path d="m211.863281 220.691406-52.964843 35.308594v-70.621094zm0 0" fill="#fff"/>
</svg>