<svg height="512pt" viewBox="-79 0 512 512" width="512pt" xmlns="http://www.w3.org/2000/svg">
    <path d="m353.101562 485.515625h-353.101562v-485.515625h273.65625l79.445312 79.449219zm0 0" fill="#ffffff"/>
    <path d="m209.683594 123.585938c-.097656 7.953124-6.453125 12.828124-13.816406 13.65625-13.09375 1.464843-26.492188-1.066407-39.726563.1875-7.484375.703124-13.839844-6.90625-13.839844-13.84375h-62.851562v176.550781h194.207031v-176.550781zm0 0"
          fill="#be6e41"/>

    <path d="m0 353.101562h353.101562v158.898438h-353.101562zm0 0" fill="#d36a0a"/>
    <path d="m141.242188 123.585938h70.621093v52.964843h-70.621093zm0 0" fill="#f7e6a1"/>
    <path d="m150.070312 273.65625h-35.3125c-4.871093 0-8.828124-3.945312-8.828124-8.828125v-35.3125c0-4.878906 3.957031-8.824219 8.828124-8.824219 4.875 0 8.828126 3.945313 8.828126 8.824219v26.484375h26.484374c4.871094 0 8.828126 3.945312 8.828126 8.828125s-3.957032 8.828125-8.828126 8.828125zm0 0"
          fill="#8c4d2d"/>
    <path d="m238.34375 273.65625h-35.308594c-4.875 0-8.828125-3.945312-8.828125-8.828125s3.953125-8.828125 8.828125-8.828125h26.480469v-26.484375c0-4.878906 3.957031-8.824219 8.828125-8.824219 4.875 0 8.828125 3.945313 8.828125 8.824219v35.3125c0 4.882813-3.953125 8.828125-8.828125 8.828125zm0 0"
          fill="#8c4d2d"/>
    <g fill="#fff">
        <path d="m52.964844 485.515625c-4.871094 0-8.828125-3.945313-8.828125-8.824219v-88.277344c0-4.882812 3.957031-8.828124 8.828125-8.828124 4.875 0 8.828125 3.945312 8.828125 8.828124v88.277344c0 4.878906-3.953125 8.824219-8.828125 8.824219zm0 0"/>
        <path d="m79.449219 450.207031h-26.484375c-4.871094 0-8.828125-3.945312-8.828125-8.828125v-52.964844c0-4.882812 3.957031-8.828124 8.828125-8.828124h26.484375c19.472656 0 35.308593 15.835937 35.308593 35.3125 0 19.472656-15.835937 35.308593-35.308593 35.308593zm-17.65625-17.65625h17.65625c9.734375 0 17.652343-7.917969 17.652343-17.652343 0-9.738282-7.917968-17.65625-17.652343-17.65625h-17.65625zm0 0"/>
        <path d="m150.070312 485.515625c-4.875 0-8.828124-3.945313-8.828124-8.824219v-88.277344c0-4.882812 3.953124-8.828124 8.828124-8.828124 4.871094 0 8.828126 3.945312 8.828126 8.828124v88.277344c0 4.878906-3.957032 8.824219-8.828126 8.824219zm0 0"/>
        <path d="m150.070312 441.378906c-2.527343 0-5.042968-1.078125-6.789062-3.167968-3.125-3.753907-2.613281-9.324219 1.128906-12.4375l52.964844-44.140626c3.742188-3.113281 9.304688-2.621093 12.429688 1.132813 3.125 3.75 2.613281 9.320313-1.128907 12.4375l-52.964843 44.136719c-1.644532 1.367187-3.648438 2.039062-5.640626 2.039062zm0 0"/>
        <path d="m203.035156 485.515625c-1.996094 0-4-.667969-5.648437-2.039063l-52.96875-44.136718c-3.742188-3.125-4.253907-8.6875-1.128907-12.4375 3.125-3.742188 8.6875-4.230469 12.429688-1.128906l52.964844 44.136718c3.742187 3.125 4.253906 8.6875 1.128906 12.4375-1.738281 2.09375-4.253906 3.167969-6.777344 3.167969zm0 0"/>
        <path d="m282.449219 485.515625h-17.550781c-14.636719 0-26.554688-11.914063-26.554688-26.5625v-52.804687c0-14.644532 11.917969-26.5625 26.5625-26.5625h35.230469c4.875 0 8.828125 3.945312 8.828125 8.828124 0 4.882813-3.953125 8.828126-8.828125 8.828126h-35.230469c-4.917969 0-8.90625 3.988281-8.90625 8.90625v52.804687c0 4.917969 3.988281 8.910156 8.90625 8.910156h17.550781c4.882813 0 8.851563-3.972656 8.851563-8.863281v-26.449219c0-4.878906 3.957031-8.828125 8.828125-8.828125 4.875 0 8.828125 3.949219 8.828125 8.828125v26.449219c0 14.617188-11.890625 26.515625-26.515625 26.515625zm0 0"/>
        <path d="m300.136719 441.378906h-17.652344c-4.875 0-8.828125-3.945312-8.828125-8.828125 0-4.878906 3.953125-8.828125 8.828125-8.828125h17.652344c4.875 0 8.828125 3.949219 8.828125 8.828125 0 4.882813-3.953125 8.828125-8.828125 8.828125zm0 0"/>
    </g>
</svg>