<svg height="512pt" viewBox="-79 0 512 512" width="512pt" xmlns="http://www.w3.org/2000/svg">
    <path d="m353.101562 485.515625h-353.101562v-485.515625h273.65625l79.445312 79.449219zm0 0" fill="#ffffff"/>
    <path d="m123.578125 317.792969c-1.546875 0-3.117187-.40625-4.53125-1.261719-4.183594-2.507812-5.53125-7.925781-3.027344-12.113281l26.484375-44.136719c2.507813-4.183594 7.925782-5.527344 12.109375-3.027344 4.1875 2.507813 5.535157 7.925782 3.03125 12.109375l-26.484375 44.140625c-1.660156 2.761719-4.582031 4.289063-7.582031 4.289063zm0 0"
          fill="#C0C4CC"/>
    <path d="m229.527344 317.792969c-3.003906 0-5.925782-1.527344-7.574219-4.28125l-26.484375-44.136719c-2.507812-4.183594-1.15625-9.605469 3.027344-12.113281 4.175781-2.507813 9.605468-1.15625 12.113281 3.027343l26.480469 44.140626c2.507812 4.183593 1.15625 9.601562-3.027344 12.109374-1.421875.847657-2.992188 1.253907-4.535156 1.253907zm0 0"
          fill="#C0C4CC"/>
    <path d="m176.550781 132.414062c-2.257812 0-4.519531-.867187-6.238281-2.585937l-26.484375-26.484375c-3.453125-3.449219-3.453125-9.03125 0-12.480469 3.441406-3.453125 9.039063-3.453125 12.480469 0l26.484375 26.480469c3.453125 3.453125 3.453125 9.03125 0 12.484375-1.722657 1.71875-3.980469 2.585937-6.242188 2.585937zm0 0"
          fill="#C0C4CC"/>
    <path d="m176.550781 132.414062c-2.257812 0-4.519531-.867187-6.238281-2.585937-3.453125-3.453125-3.453125-9.03125 0-12.484375l26.480469-26.480469c3.441406-3.453125 9.039062-3.453125 12.484375 0 3.449218 3.449219 3.449218 9.03125 0 12.480469l-26.484375 26.484375c-1.722657 1.71875-3.980469 2.585937-6.242188 2.585937zm0 0"
          fill="#C0C4CC"/>

    <path d="m0 353.101562h353.101562v158.898438h-353.101562zm0 0" fill="#d36a0a"/>
    <g fill="#fff">
        <path d="m52.964844 485.515625c-4.871094 0-8.828125-3.953125-8.828125-8.824219v-88.277344c0-4.875 3.957031-8.828124 8.828125-8.828124 4.875 0 8.828125 3.953124 8.828125 8.828124v88.277344c0 4.871094-3.953125 8.824219-8.828125 8.824219zm0 0"/>
        <path d="m79.449219 450.207031h-26.484375c-4.871094 0-8.828125-3.953125-8.828125-8.828125v-52.964844c0-4.875 3.957031-8.828124 8.828125-8.828124h26.484375c19.472656 0 35.308593 15.835937 35.308593 35.3125 0 19.472656-15.835937 35.308593-35.308593 35.308593zm-17.65625-17.65625h17.65625c9.734375 0 17.652343-7.917969 17.652343-17.652343 0-9.738282-7.917968-17.65625-17.652343-17.65625h-17.65625zm0 0"/>
        <path d="m150.070312 485.515625c-4.875 0-8.828124-3.953125-8.828124-8.824219v-88.277344c0-4.875 3.953124-8.828124 8.828124-8.828124 4.871094 0 8.828126 3.953124 8.828126 8.828124v88.277344c0 4.871094-3.957032 8.824219-8.828126 8.824219zm0 0"/>
        <path d="m176.550781 450.207031h-26.480469c-4.875 0-8.828124-3.953125-8.828124-8.828125v-52.964844c0-4.875 3.953124-8.828124 8.828124-8.828124h26.480469c19.472657 0 35.3125 15.835937 35.3125 35.3125 0 19.472656-15.839843 35.308593-35.3125 35.308593zm-17.652343-17.65625h17.652343c9.738281 0 17.65625-7.917969 17.65625-17.652343 0-9.738282-7.917969-17.65625-17.65625-17.65625h-17.652343zm0 0"/>
        <path d="m300.136719 397.242188h-52.964844c-4.871094 0-8.828125-3.957032-8.828125-8.828126 0-4.875 3.957031-8.828124 8.828125-8.828124h52.964844c4.875 0 8.828125 3.953124 8.828125 8.828124 0 4.871094-3.953125 8.828126-8.828125 8.828126zm0 0"/>
        <path d="m273.65625 485.515625c-4.875 0-8.828125-3.953125-8.828125-8.824219v-88.277344c0-4.875 3.953125-8.828124 8.828125-8.828124 4.871094 0 8.828125 3.953124 8.828125 8.828124v88.277344c0 4.871094-3.957031 8.824219-8.828125 8.824219zm0 0"/>
    </g>

    <path d="m61.792969 123.585938h229.515625v141.242187h-229.515625zm0 0" fill="#E4E7ED"/>
    <path d="m167.722656 167.722656h-70.621094c-4.871093 0-8.824218-3.953125-8.824218-8.824218 0-4.875 3.953125-8.828126 8.824218-8.828126h70.621094c4.875 0 8.828125 3.953126 8.828125 8.828126 0 4.871093-3.953125 8.824218-8.828125 8.824218zm0 0"
          fill="#C0C4CC"/>
    <path d="m256 238.34375h-70.621094c-4.871094 0-8.828125-3.953125-8.828125-8.828125 0-4.871094 3.957031-8.824219 8.828125-8.824219h70.621094c4.871094 0 8.828125 3.953125 8.828125 8.824219 0 4.875-3.957031 8.828125-8.828125 8.828125zm0 0"
          fill="#C0C4CC"/>
    <path d="m211.863281 203.035156h-70.621093c-4.875 0-8.828126-3.957031-8.828126-8.828125 0-4.871093 3.953126-8.828125 8.828126-8.828125h70.621093c4.871094 0 8.828125 3.957032 8.828125 8.828125 0 4.871094-3.957031 8.828125-8.828125 8.828125zm0 0"
          fill="#C0C4CC"/>
</svg>