<svg height="512pt" viewBox="-79 0 512 512" width="512pt" xmlns="http://www.w3.org/2000/svg">
    <path d="m353.101562 512h-353.101562v-512h273.65625l79.445312 79.449219zm0 0" fill="#ffffff"/>
    <g fill="#a09893">
        <path d="m105.929688 247.171875h-52.964844c-4.871094 0-8.828125-3.945313-8.828125-8.828125 0-4.878906 3.957031-8.828125 8.828125-8.828125h52.964844c4.875 0 8.828124 3.949219 8.828124 8.828125 0 4.882812-3.953124 8.828125-8.828124 8.828125zm0 0"/>
        <path d="m300.136719 247.171875h-17.652344c-4.875 0-8.828125-3.945313-8.828125-8.828125 0-4.878906 3.953125-8.828125 8.828125-8.828125h17.652344c4.875 0 8.828125 3.949219 8.828125 8.828125 0 4.882812-3.953125 8.828125-8.828125 8.828125zm0 0"/>
        <path d="m300.136719 282.484375h-61.792969c-4.871094 0-8.828125-3.949219-8.828125-8.828125 0-4.882812 3.957031-8.828125 8.828125-8.828125h61.792969c4.875 0 8.828125 3.945313 8.828125 8.828125 0 4.878906-3.953125 8.828125-8.828125 8.828125zm0 0"/>
        <path d="m88.277344 282.484375h-35.3125c-4.871094 0-8.828125-3.949219-8.828125-8.828125 0-4.882812 3.957031-8.828125 8.828125-8.828125h35.3125c4.871094 0 8.824218 3.945313 8.824218 8.828125 0 4.878906-3.953124 8.828125-8.824218 8.828125zm0 0"/>
        <path d="m105.929688 317.792969h-52.964844c-4.871094 0-8.828125-3.945313-8.828125-8.828125 0-4.882813 3.957031-8.828125 8.828125-8.828125h52.964844c4.875 0 8.828124 3.945312 8.828124 8.828125 0 4.882812-3.953124 8.828125-8.828124 8.828125zm0 0"/>
        <path d="m300.136719 211.863281h-70.621094c-4.871094 0-8.824219-3.945312-8.824219-8.828125 0-4.882812 3.953125-8.828125 8.824219-8.828125h70.621094c4.875 0 8.828125 3.945313 8.828125 8.828125 0 4.882813-3.953125 8.828125-8.828125 8.828125zm0 0"/>
        <path d="m194.207031 211.863281h-88.277343c-4.871094 0-8.828126-3.945312-8.828126-8.828125 0-4.882812 3.957032-8.828125 8.828126-8.828125h88.277343c4.871094 0 8.828125 3.945313 8.828125 8.828125 0 4.882813-3.957031 8.828125-8.828125 8.828125zm0 0"/>
        <path d="m229.515625 176.550781h-97.101563c-4.875 0-8.828124-3.945312-8.828124-8.828125 0-4.878906 3.953124-8.824218 8.828124-8.824218h97.101563c4.875 0 8.828125 3.945312 8.828125 8.824218 0 4.882813-3.953125 8.828125-8.828125 8.828125zm0 0"/>
        <path d="m70.621094 211.863281h-17.65625c-4.871094 0-8.828125-3.945312-8.828125-8.828125 0-4.882812 3.957031-8.828125 8.828125-8.828125h17.65625c4.871094 0 8.828125 3.945313 8.828125 8.828125 0 4.882813-3.957031 8.828125-8.828125 8.828125zm0 0"/>
        <path d="m97.101562 176.550781h-44.136718c-4.871094 0-8.828125-3.945312-8.828125-8.828125 0-4.878906 3.957031-8.824218 8.828125-8.824218h44.136718c4.875 0 8.828126 3.945312 8.828126 8.824218 0 4.882813-3.953126 8.828125-8.828126 8.828125zm0 0"/>
        <path d="m300.136719 176.550781h-35.308594c-4.875 0-8.828125-3.945312-8.828125-8.828125 0-4.878906 3.953125-8.824218 8.828125-8.824218h35.308594c4.875 0 8.828125 3.945312 8.828125 8.824218 0 4.882813-3.953125 8.828125-8.828125 8.828125zm0 0"/>
    </g>
    <path d="m300.136719 449.316406c-2.257813 0-4.519531-.867187-6.238281-2.585937l-61.351563-61.34375c-3.453125-3.453125-3.453125-9.03125 0-12.484375 3.449219-3.449219 9.027344-3.449219 12.480469 0l61.351562 61.34375c3.453125 3.453125 3.453125 9.03125 0 12.484375-1.722656 1.730469-3.980468 2.585937-6.242187 2.585937zm0 0"
          fill="#556080"/>
    <path d="m264.828125 317.792969c0 43.878906-35.570313 79.449219-79.449219 79.449219s-79.449218-35.570313-79.449218-79.449219c0-43.878907 35.570312-79.449219 79.449218-79.449219s79.449219 35.570312 79.449219 79.449219zm0 0"
          fill="#fff"/>
    <path d="m220.691406 291.308594h-70.621094c-4.875 0-8.828124-3.945313-8.828124-8.824219 0-4.882813 3.953124-8.828125 8.828124-8.828125h70.621094c4.871094 0 8.824219 3.945312 8.824219 8.828125 0 4.878906-3.953125 8.824219-8.824219 8.824219zm0 0"
          fill="#212f3f"/>
    <path d="m150.070312 300.136719c-4.875 0-8.828124-3.945313-8.828124-8.828125v-8.824219c0-4.882813 3.953124-8.828125 8.828124-8.828125 4.871094 0 8.828126 3.945312 8.828126 8.828125v8.824219c0 4.882812-3.957032 8.828125-8.828126 8.828125zm0 0"
          fill="#212f3f"/>
    <path d="m220.691406 300.136719c-4.875 0-8.828125-3.945313-8.828125-8.828125v-8.824219c0-4.882813 3.953125-8.828125 8.828125-8.828125 4.871094 0 8.824219 3.945312 8.824219 8.828125v8.824219c0 4.882812-3.953125 8.828125-8.824219 8.828125zm0 0"
          fill="#212f3f"/>
    <path d="m185.378906 361.929688c-4.871094 0-8.828125-3.945313-8.828125-8.828126v-70.617187c0-4.882813 3.957031-8.828125 8.828125-8.828125 4.875 0 8.828125 3.945312 8.828125 8.828125v70.617187c0 4.882813-3.953125 8.828126-8.828125 8.828126zm0 0"
          fill="#212f3f"/>
    <path d="m203.035156 361.929688h-35.3125c-4.871094 0-8.824218-3.945313-8.824218-8.828126 0-4.878906 3.953124-8.824218 8.824218-8.824218h35.3125c4.871094 0 8.828125 3.945312 8.828125 8.824218 0 4.882813-3.957031 8.828126-8.828125 8.828126zm0 0"
          fill="#212f3f"/>
</svg>