<svg height="512pt" viewBox="-79 0 512 512" width="512pt" xmlns="http://www.w3.org/2000/svg">
    <path d="m353.101562 485.515625h-353.101562v-485.515625h273.65625l79.445312 79.449219zm0 0" fill="#ffffff"/>
    <g fill="#cdc8bf">
        <path d="m291.308594 167.722656h-97.101563c-4.871093 0-8.828125-3.953125-8.828125-8.824218 0-4.875 3.957032-8.828126 8.828125-8.828126h97.101563c4.875 0 8.828125 3.953126 8.828125 8.828126 0 4.871093-3.953125 8.824218-8.828125 8.824218zm0 0"/>
        <path d="m158.898438 167.722656h-97.105469c-4.871094 0-8.828125-3.953125-8.828125-8.824218 0-4.875 3.957031-8.828126 8.828125-8.828126h97.105469c4.871093 0 8.824218 3.953126 8.824218 8.828126 0 4.871093-3.953125 8.824218-8.824218 8.824218zm0 0"/>
        <path d="m273.65625 247.171875c-4.875 0-8.828125-3.953125-8.828125-8.828125 0-38.9375-31.683594-70.621094-70.621094-70.621094-4.871093 0-8.828125-3.953125-8.828125-8.824218 0-4.875 3.957032-8.828126 8.828125-8.828126 48.675781 0 88.277344 39.597657 88.277344 88.273438 0 4.875-3.957031 8.828125-8.828125 8.828125zm0 0"/>
        <path d="m79.449219 247.171875c-4.875 0-8.828125-3.953125-8.828125-8.828125 0-48.675781 39.601562-88.273438 88.277344-88.273438 4.871093 0 8.824218 3.953126 8.824218 8.828126 0 4.871093-3.953125 8.824218-8.824218 8.824218-38.941407 0-70.621094 31.683594-70.621094 70.621094 0 4.875-3.957032 8.828125-8.828125 8.828125zm0 0"/>
    </g>

    <path d="m0 353.101562h353.101562v158.898438h-353.101562zm0 0" fill="#e48a00"/>
    <path d="m83.863281 485.515625h-30.898437c-4.871094 0-8.828125-3.953125-8.828125-8.824219 0-4.875 3.957031-8.828125 8.828125-8.828125h30.898437c7.300781 0 13.238281-5.941406 13.238281-13.242187 0-7.300782-5.9375-13.242188-13.238281-13.242188h-8.828125c-17.039062 0-30.898437-13.859375-30.898437-30.894531 0-17.039063 13.859375-30.898437 30.898437-30.898437h30.894532c4.875 0 8.828124 3.953124 8.828124 8.828124 0 4.871094-3.953124 8.828126-8.828124 8.828126h-30.894532c-7.300781 0-13.242187 5.941406-13.242187 13.242187 0 7.296875 5.941406 13.238281 13.242187 13.238281h8.828125c17.035157 0 30.894531 13.859375 30.894531 30.898438 0 17.035156-13.859374 30.894531-30.894531 30.894531zm0 0"
          fill="#fff"/>
    <path d="m158.898438 141.242188h35.308593v35.308593h-35.308593zm0 0" fill="#563c09"/>
    <path d="m256 238.34375h35.308594v35.3125h-35.308594zm0 0" fill="#563c09"/>
    <path d="m97.101562 273.65625h-35.308593v-35.3125h35.308593zm0 0" fill="#563c09"/>
    <path d="m176.550781 485.515625c-3.609375 0-6.859375-2.195313-8.191406-5.542969l-35.308594-88.273437c-1.8125-4.53125.386719-9.667969 4.914063-11.476563 4.53125-1.800781 9.660156.394532 11.476562 4.917969l27.109375 67.785156 27.121094-67.785156c1.816406-4.53125 6.953125-6.71875 11.472656-4.917969 4.53125 1.816406 6.726563 6.945313 4.917969 11.476563l-35.308594 88.273437c-1.34375 3.347656-4.589844 5.542969-8.203125 5.542969zm0 0"
          fill="#fff"/>
    <path d="m282.449219 485.515625h-17.550781c-14.636719 0-26.554688-11.914063-26.554688-26.5625v-52.804687c0-14.644532 11.917969-26.5625 26.5625-26.5625h35.230469c4.875 0 8.828125 3.953124 8.828125 8.828124 0 4.871094-3.953125 8.828126-8.828125 8.828126h-35.230469c-4.917969 0-8.90625 4-8.90625 8.90625v52.804687c0 4.910156 3.988281 8.910156 8.90625 8.910156h17.550781c4.882813 0 8.851563-3.972656 8.851563-8.855469v-26.457031c0-4.871093 3.957031-8.828125 8.828125-8.828125 4.875 0 8.828125 3.957032 8.828125 8.828125v26.457031c0 14.617188-11.890625 26.507813-26.515625 26.507813zm0 0"
          fill="#fff"/>
    <path d="m300.136719 441.378906h-17.652344c-4.875 0-8.828125-3.953125-8.828125-8.828125 0-4.871093 3.953125-8.828125 8.828125-8.828125h17.652344c4.875 0 8.828125 3.957032 8.828125 8.828125 0 4.875-3.953125 8.828125-8.828125 8.828125zm0 0"
          fill="#fff"/>
</svg>