<svg height="512pt" viewBox="-79 0 512 512" width="512pt" xmlns="http://www.w3.org/2000/svg">
    <path d="m353.101562 485.515625h-353.101562v-485.515625h273.65625l79.445312 79.449219zm0 0" fill="#ffffff"/>

    <path d="m0 353.101562h353.101562v158.898438h-353.101562zm0 0" fill="#4e74ba"/>
    <path d="m238.34375 211.863281c0 34.125-27.664062 61.792969-61.792969 61.792969-34.125 0-61.792969-27.667969-61.792969-61.792969 0-34.128906 27.667969-61.792969 61.792969-61.792969 34.128907 0 61.792969 27.664063 61.792969 61.792969zm0 0"
          fill="#4e74ba"/>
    <path d="m203.035156 211.863281-44.136718 26.480469v-52.964844zm0 0" fill="#fff"/>
    <path d="m256 291.308594c-2.074219 0-4.15625-.722656-5.835938-2.207032-3.652343-3.230468-4.007812-8.808593-.777343-12.460937 15.644531-17.738281 24.269531-40.730469 24.269531-64.777344s-8.625-47.042969-24.277344-64.777343c-3.230468-3.65625-2.878906-9.234376.777344-12.464844 3.65625-3.230469 9.242188-2.878906 12.457031.777344 18.511719 20.964843 28.695313 48.117187 28.695313 76.464843 0 28.34375-10.183594 55.496094-28.6875 76.464844-1.75 1.976563-4.183594 2.980469-6.621094 2.980469zm0 0"
          fill="#375a93"/>
    <path d="m291.300781 308.964844c-1.757812 0-3.53125-.527344-5.082031-1.613282-3.984375-2.816406-4.9375-8.324218-2.121094-12.316406 16.039063-22.695312 24.867188-52.242187 24.867188-83.171875 0-30.933593-8.828125-60.480469-24.867188-83.183593-2.804687-3.980469-1.863281-9.488282 2.121094-12.3125 3.988281-2.800782 9.488281-1.855469 12.304688 2.117187 18.121093 25.671875 28.097656 58.835937 28.097656 93.378906s-9.976563 67.707031-28.097656 93.367188c-1.722657 2.4375-4.449219 3.734375-7.222657 3.734375zm0 0"
          fill="#23416d"/>
    <path d="m97.101562 291.308594c-2.441406 0-4.871093-1.003906-6.617187-2.980469-18.503906-20.96875-28.691406-48.121094-28.691406-76.464844 0-28.347656 10.1875-55.5 28.691406-76.464843 3.230469-3.65625 8.808594-4 12.453125-.777344 3.65625 3.230468 4.007812 8.808594.777344 12.464844-15.640625 17.734374-24.265625 40.738281-24.265625 64.777343 0 24.035157 8.625 47.039063 24.273437 64.777344 3.222656 3.652344 2.878906 9.230469-.773437 12.460937-1.679688 1.484376-3.761719 2.207032-5.847657 2.207032zm0 0"
          fill="#375a93"/>
    <path d="m61.800781 308.964844c-2.769531 0-5.5-1.296875-7.21875-3.734375-18.125-25.667969-28.097656-58.824219-28.097656-93.367188s9.972656-67.699219 28.097656-93.371093c2.816407-3.972657 8.316407-4.925782 12.304688-2.117188 3.980469 2.816406 4.933593 8.324219 2.117187 12.3125-16.039062 22.695312-24.867187 52.242188-24.867187 83.175781 0 30.929688 8.828125 60.476563 24.867187 83.179688 2.816406 3.984375 1.863282 9.492187-2.117187 12.316406-1.546875 1.078125-3.328125 1.605469-5.085938 1.605469zm0 0"
          fill="#23416d"/>
    <g fill="#fff">
        <path d="m273.65625 485.515625c-3.613281 0-6.851562-2.195313-8.203125-5.550781l-35.308594-88.277344c-1.808593-4.527344.386719-9.664062 4.917969-11.472656 4.542969-1.8125 9.664062.386718 11.472656 4.925781l27.121094 67.785156 27.109375-67.785156c1.808594-4.539063 6.929687-6.753906 11.476563-4.925781 4.527343 1.808594 6.726562 6.945312 4.914062 11.472656l-35.308594 88.277344c-1.34375 3.355468-4.582031 5.550781-8.191406 5.550781zm0 0"/>
        <path d="m203.035156 485.515625c-4.875 0-8.828125-3.945313-8.828125-8.824219v-77.429687c0-1.109375-.910156-2.019531-2.023437-2.019531h-31.265625c-1.113281 0-2.019531.910156-2.019531 2.019531v77.429687c0 4.878906-3.957032 8.824219-8.828126 8.824219-4.875 0-8.828124-3.945313-8.828124-8.824219v-77.429687c0-10.847657 8.828124-19.675781 19.675781-19.675781h31.265625c10.851562 0 19.679687 8.828124 19.679687 19.675781v77.429687c0 4.878906-3.957031 8.824219-8.828125 8.824219zm0 0"/>
        <path d="m203.035156 441.378906h-52.964844c-4.875 0-8.828124-3.945312-8.828124-8.828125 0-4.878906 3.953124-8.828125 8.828124-8.828125h52.964844c4.871094 0 8.828125 3.949219 8.828125 8.828125 0 4.882813-3.957031 8.828125-8.828125 8.828125zm0 0"/>
        <path d="m105.929688 485.515625c-3.484376 0-6.699219-2.0625-8.109376-5.347656l-18.371093-42.859375-18.371094 42.851562c-1.589844 3.699219-5.464844 5.867188-9.453125 5.25-3.984375-.609375-7.046875-3.828125-7.441406-7.835937l-8.828125-88.277344c-.488281-4.855469 3.054687-9.179687 7.898437-9.667969 4.875-.441406 9.183594 3.054688 9.667969 7.910156l5.417969 54.203126 12.996094-30.316407c1.394531-3.253906 4.582031-5.355469 8.113281-5.355469s6.71875 2.101563 8.113281 5.347657l12.992188 30.3125 5.421874-54.199219c.484376-4.855469 4.84375-8.296875 9.664063-7.910156 4.855469.484375 8.386719 4.8125 7.910156 9.667968l-8.828125 88.273438c-.398437 4.007812-3.460937 7.230469-7.441406 7.847656-.457031.070313-.910156.105469-1.351562.105469zm0 0"/>
    </g>
</svg>