<svg height="512pt" viewBox="-79 0 512 512" width="512pt" xmlns="http://www.w3.org/2000/svg">
    <path d="m353.101562 485.515625h-353.101562v-485.515625h273.65625l79.445312 79.449219zm0 0" fill="#ffffff"/>

    <path d="m0 353.101562h353.101562v158.898438h-353.101562zm0 0" fill="#324946"/>
    <path d="m88.277344 123.585938h176.550781v176.550781h-176.550781zm0 0" fill="#e1a02f"/>
    <path d="m203.035156 211.863281-52.964844 35.308594v-70.621094zm0 0" fill="#fff"/>
    <path d="m282.484375 485.515625c-3.613281 0-6.851563-2.195313-8.203125-5.542969l-35.308594-88.273437c-1.8125-4.53125.386719-9.667969 4.914063-11.476563 4.546875-1.792968 9.667969.394532 11.476562 4.917969l27.121094 67.785156 27.109375-67.785156c1.808594-4.53125 6.929688-6.71875 11.472656-4.917969 4.53125 1.816406 6.726563 6.945313 4.917969 11.476563l-35.308594 88.273437c-1.34375 3.347656-4.582031 5.542969-8.191406 5.542969zm0 0"
          fill="#fff"/>
    <path d="m70.621094 123.585938h35.308594v35.3125h-35.308594zm0 0" fill="#324946"/>
    <path d="m70.621094 158.898438h35.308594v35.308593h-35.308594zm0 0" fill="#1b2d2a"/>
    <path d="m70.621094 194.207031h35.308594v35.308594h-35.308594zm0 0" fill="#324946"/>
    <path d="m70.621094 229.515625h35.308594v35.3125h-35.308594zm0 0" fill="#1b2d2a"/>
    <path d="m70.621094 264.828125h35.308594v35.308594h-35.308594zm0 0" fill="#324946"/>
    <path d="m211.863281 485.515625c-4.875 0-8.828125-3.953125-8.828125-8.824219v-55.03125l-18.820312 32.925782c-3.132813 5.5-12.191406 5.5-15.324219 0l-18.820313-32.925782v55.03125c0 4.871094-3.957031 8.824219-8.828124 8.824219-4.875 0-8.828126-3.953125-8.828126-8.824219v-88.277344c0-4.007812 2.691407-7.503906 6.558594-8.527343 3.875-1.050781 7.945313.671875 9.929688 4.148437l27.648437 48.375 27.648438-48.375c1.988281-3.46875 6.046875-5.199218 9.929687-4.148437 3.867188 1.023437 6.5625 4.519531 6.5625 8.527343v88.277344c0 4.871094-3.957031 8.824219-8.828125 8.824219zm0 0"
          fill="#fff"/>
    <path d="m97.101562 485.515625c-3.484374 0-6.699218-2.0625-8.101562-5.347656l-18.378906-42.859375-18.371094 42.859375c-1.578125 3.691406-5.480469 5.84375-9.453125 5.242187-3.980469-.609375-7.046875-3.839844-7.441406-7.835937l-8.828125-88.277344c-.484375-4.855469 3.054687-9.179687 7.898437-9.667969 4.855469-.429687 9.183594 3.054688 9.667969 7.910156l5.421875 54.203126 12.992187-30.324219c1.386719-3.246094 4.582032-5.347657 8.113282-5.347657s6.726562 2.101563 8.113281 5.347657l12.992187 30.324219 5.421876-54.203126c.484374-4.84375 4.75-8.351562 9.664062-7.910156 4.847656.488282 8.386719 4.8125 7.910156 9.667969l-8.828125 88.277344c-.394531 4.007812-3.460937 7.226562-7.441406 7.847656-.457031.058594-.910156.09375-1.351563.09375zm0 0"
          fill="#fff"/>
    <path d="m247.171875 123.585938h35.3125v35.3125h-35.3125zm0 0" fill="#324946"/>
    <path d="m247.171875 158.898438h35.3125v35.308593h-35.3125zm0 0" fill="#1b2d2a"/>
    <path d="m247.171875 194.207031h35.3125v35.308594h-35.3125zm0 0" fill="#324946"/>
    <path d="m247.171875 229.515625h35.3125v35.3125h-35.3125zm0 0" fill="#1b2d2a"/>
    <path d="m247.171875 264.828125h35.3125v35.308594h-35.3125zm0 0" fill="#324946"/>
</svg>