<svg height="512pt" viewBox="-79 0 512 512" width="512pt" xmlns="http://www.w3.org/2000/svg">
    <path d="m353.101562 485.515625h-353.101562v-485.515625h273.65625l79.445312 79.449219zm0 0" fill="#ffffff"/>

    <path d="m0 353.101562h353.101562v158.898438h-353.101562zm0 0" fill="#82c288"/>
    <path d="m203.035156 485.515625h-52.964844c-4.875 0-8.828124-3.953125-8.828124-8.824219 0-4.875 3.953124-8.828125 8.828124-8.828125h52.964844c4.871094 0 8.828125 3.953125 8.828125 8.828125 0 4.871094-3.957031 8.824219-8.828125 8.824219zm0 0"
          fill="#fff"/>
    <path d="m150.070312 485.515625c-4.875 0-8.828124-3.953125-8.828124-8.824219v-88.277344c0-4.875 3.953124-8.828124 8.828124-8.828124 4.871094 0 8.828126 3.953124 8.828126 8.828124v88.277344c0 4.871094-3.957032 8.824219-8.828126 8.824219zm0 0"
          fill="#fff"/>
    <g fill="#a09893">
        <path d="m123.585938 167.722656h-70.621094c-4.871094 0-8.828125-3.953125-8.828125-8.824218v-35.3125c0-4.871094 3.957031-8.828126 8.828125-8.828126h70.621094c4.875 0 8.828124 3.957032 8.828124 8.828126v35.3125c0 4.871093-3.953124 8.824218-8.828124 8.824218zm-61.792969-17.652344h52.964843v-17.65625h-52.964843zm0 0"/>
        <path d="m123.585938 203.035156h-70.621094c-4.871094 0-8.828125-3.957031-8.828125-8.828125v-35.308593c0-4.875 3.957031-8.828126 8.828125-8.828126h70.621094c4.875 0 8.828124 3.953126 8.828124 8.828126v35.308593c0 4.871094-3.953124 8.828125-8.828124 8.828125zm-61.792969-17.65625h52.964843v-17.65625h-52.964843zm0 0"/>
        <path d="m300.136719 203.035156h-176.550781c-4.871094 0-8.828126-3.957031-8.828126-8.828125v-35.308593c0-4.875 3.957032-8.828126 8.828126-8.828126h176.550781c4.875 0 8.828125 3.953126 8.828125 8.828126v35.308593c0 4.871094-3.953125 8.828125-8.828125 8.828125zm-167.722657-17.65625h158.894532v-17.65625h-158.894532zm0 0"/>
        <path d="m123.585938 238.34375h-70.621094c-4.871094 0-8.828125-3.953125-8.828125-8.828125v-35.308594c0-4.871093 3.957031-8.828125 8.828125-8.828125h70.621094c4.875 0 8.828124 3.957032 8.828124 8.828125v35.308594c0 4.875-3.953124 8.828125-8.828124 8.828125zm-61.792969-17.652344h52.964843v-17.65625h-52.964843zm0 0"/>
        <path d="m300.136719 238.34375h-176.550781c-4.871094 0-8.828126-3.953125-8.828126-8.828125v-35.308594c0-4.871093 3.957032-8.828125 8.828126-8.828125h176.550781c4.875 0 8.828125 3.957032 8.828125 8.828125v35.308594c0 4.875-3.953125 8.828125-8.828125 8.828125zm-167.722657-17.652344h158.894532v-17.65625h-158.894532zm0 0"/>
        <path d="m123.585938 273.65625h-70.621094c-4.871094 0-8.828125-3.957031-8.828125-8.828125v-35.3125c0-4.871094 3.957031-8.824219 8.828125-8.824219h70.621094c4.875 0 8.828124 3.953125 8.828124 8.824219v35.3125c0 4.871094-3.953124 8.828125-8.828124 8.828125zm-61.792969-17.65625h52.964843v-17.65625h-52.964843zm0 0"/>
        <path d="m300.136719 273.65625h-176.550781c-4.871094 0-8.828126-3.957031-8.828126-8.828125v-35.3125c0-4.871094 3.957032-8.824219 8.828126-8.824219h176.550781c4.875 0 8.828125 3.953125 8.828125 8.824219v35.3125c0 4.871094-3.953125 8.828125-8.828125 8.828125zm-167.722657-17.65625h158.894532v-17.65625h-158.894532zm0 0"/>
        <path d="m123.585938 308.964844h-70.621094c-4.871094 0-8.828125-3.953125-8.828125-8.828125v-35.308594c0-4.875 3.957031-8.828125 8.828125-8.828125h70.621094c4.875 0 8.828124 3.953125 8.828124 8.828125v35.308594c0 4.875-3.953124 8.828125-8.828124 8.828125zm-61.792969-17.65625h52.964843v-17.652344h-52.964843zm0 0"/>
        <path d="m300.136719 308.964844h-176.550781c-4.871094 0-8.828126-3.953125-8.828126-8.828125v-35.308594c0-4.875 3.957032-8.828125 8.828126-8.828125h176.550781c4.875 0 8.828125 3.953125 8.828125 8.828125v35.308594c0 4.875-3.953125 8.828125-8.828125 8.828125zm-167.722657-17.65625h158.894532v-17.652344h-158.894532zm0 0"/>
    </g>
    <path d="m52.957031 485.515625c-1.546875 0-3.117187-.40625-4.527343-1.261719-4.1875-2.507812-5.535157-7.925781-3.03125-12.109375l52.96875-88.277343c2.503906-4.183594 7.925781-5.535157 12.109374-3.027344 4.183594 2.507812 5.535157 7.925781 3.027344 12.113281l-52.964844 88.273437c-1.660156 2.761719-4.582031 4.289063-7.582031 4.289063zm0 0"
          fill="#fff"/>
    <path d="m105.941406 485.515625c-3.003906 0-5.925781-1.527344-7.574218-4.28125l-52.96875-88.273437c-2.503907-4.183594-1.15625-9.605469 3.03125-12.113282 4.183593-2.515625 9.601562-1.15625 12.109374 3.027344l52.964844 88.277344c2.507813 4.183594 1.15625 9.605468-3.027344 12.113281-1.421874.84375-2.992187 1.25-4.535156 1.25zm0 0"
          fill="#fff"/>
    <path d="m278.070312 485.515625h-30.898437c-4.871094 0-8.828125-3.953125-8.828125-8.824219 0-4.875 3.957031-8.828125 8.828125-8.828125h30.898437c7.300782 0 13.238282-5.941406 13.238282-13.242187 0-7.300782-5.9375-13.242188-13.238282-13.242188h-8.828124c-17.039063 0-30.898438-13.859375-30.898438-30.894531 0-17.039063 13.859375-30.898437 30.898438-30.898437h30.894531c4.875 0 8.828125 3.953124 8.828125 8.828124 0 4.871094-3.953125 8.828126-8.828125 8.828126h-30.894531c-7.300782 0-13.242188 5.941406-13.242188 13.242187 0 7.296875 5.941406 13.238281 13.242188 13.238281h8.828124c17.035157 0 30.894532 13.859375 30.894532 30.898438 0 17.035156-13.859375 30.894531-30.894532 30.894531zm0 0"
          fill="#fff"/>
</svg>