<svg height="512pt" viewBox="-79 0 512 512" width="512pt" xmlns="http://www.w3.org/2000/svg">
    <path d="m353.101562 485.515625h-353.101562v-485.515625h273.65625l79.445312 79.449219zm0 0" fill="#ffffff"/>

    <path d="m0 353.101562h353.101562v158.898438h-353.101562zm0 0" fill="#859594"/>
    <g fill="#a09893">
        <path d="m176.550781 326.621094c-24.335937 0-44.136719-19.800782-44.136719-44.136719v-35.3125c0-4.871094 3.953126-8.828125 8.828126-8.828125h70.621093c4.871094 0 8.828125 3.957031 8.828125 8.828125v35.3125c0 24.335937-19.800781 44.136719-44.140625 44.136719zm-26.480469-70.621094v26.484375c0 14.597656 11.878907 26.480469 26.480469 26.480469 14.601563 0 26.484375-11.882813 26.484375-26.480469v-26.484375zm0 0"/>
        <path d="m185.378906 291.308594h-17.65625c-4.871094 0-8.824218-3.953125-8.824218-8.824219 0-4.875 3.953124-8.828125 8.824218-8.828125h17.65625c4.875 0 8.828125 3.953125 8.828125 8.828125 0 4.871094-3.953125 8.824219-8.828125 8.824219zm0 0"/>
        <path d="m176.550781 256c-4.871093 0-8.828125-3.953125-8.828125-8.828125v-158.894531c0-4.875 3.957032-8.828125 8.828125-8.828125 4.875 0 8.828125 3.953125 8.828125 8.828125v158.894531c0 4.875-3.953125 8.828125-8.828125 8.828125zm0 0"/>
        <path d="m203.035156 211.863281h-52.964844c-4.875 0-8.828124-3.957031-8.828124-8.828125 0-4.875 3.953124-8.828125 8.828124-8.828125h52.964844c4.871094 0 8.828125 3.953125 8.828125 8.828125 0 4.871094-3.957031 8.828125-8.828125 8.828125zm0 0"/>
        <path d="m203.035156 167.722656h-52.964844c-4.875 0-8.828124-3.953125-8.828124-8.824218 0-4.875 3.953124-8.828126 8.828124-8.828126h52.964844c4.871094 0 8.828125 3.953126 8.828125 8.828126 0 4.871093-3.957031 8.824218-8.828125 8.824218zm0 0"/>
        <path d="m203.035156 123.585938h-52.964844c-4.875 0-8.828124-3.953126-8.828124-8.828126 0-4.871093 3.953124-8.828124 8.828124-8.828124h52.964844c4.871094 0 8.828125 3.957031 8.828125 8.828124 0 4.875-3.957031 8.828126-8.828125 8.828126zm0 0"/>
    </g>
    <path d="m105.929688 485.515625h-52.964844c-3.175782 0-6.117188-1.710937-7.679688-4.472656-1.5625-2.765625-1.527344-6.164063.113282-8.890625l44.941406-74.910156h-37.375c-4.871094 0-8.828125-3.957032-8.828125-8.828126 0-4.875 3.957031-8.828124 8.828125-8.828124h52.964844c3.179687 0 6.117187 1.710937 7.679687 4.476562 1.5625 2.761719 1.527344 6.160156-.113281 8.890625l-44.941406 74.910156h37.375c4.875 0 8.828124 3.953125 8.828124 8.828125 0 4.871094-3.953124 8.824219-8.828124 8.824219zm0 0"
          fill="#fff"/>
    <path d="m247.171875 485.515625c-4.871094 0-8.828125-3.953125-8.828125-8.824219v-88.277344c0-4.875 3.957031-8.828124 8.828125-8.828124 4.875 0 8.828125 3.953124 8.828125 8.828124v88.277344c0 4.871094-3.953125 8.824219-8.828125 8.824219zm0 0"
          fill="#fff"/>
    <path d="m273.65625 450.207031h-26.484375c-4.871094 0-8.828125-3.953125-8.828125-8.828125v-52.964844c0-4.875 3.957031-8.828124 8.828125-8.828124h26.484375c19.472656 0 35.308594 15.835937 35.308594 35.3125 0 19.472656-15.835938 35.308593-35.308594 35.308593zm-17.65625-17.65625h17.65625c9.734375 0 17.652344-7.917969 17.652344-17.652343 0-9.738282-7.917969-17.65625-17.652344-17.65625h-17.65625zm0 0"
          fill="#fff"/>
    <path d="m176.550781 485.515625c-4.871093 0-8.828125-3.953125-8.828125-8.824219v-88.277344c0-4.875 3.957032-8.828124 8.828125-8.828124 4.875 0 8.828125 3.953124 8.828125 8.828124v88.277344c0 4.871094-3.953125 8.824219-8.828125 8.824219zm0 0"
          fill="#fff"/>
    <path d="m203.035156 485.515625h-52.964844c-4.875 0-8.828124-3.953125-8.828124-8.824219 0-4.875 3.953124-8.828125 8.828124-8.828125h52.964844c4.871094 0 8.828125 3.953125 8.828125 8.828125 0 4.871094-3.957031 8.824219-8.828125 8.824219zm0 0"
          fill="#fff"/>
    <path d="m203.035156 397.242188h-52.964844c-4.875 0-8.828124-3.957032-8.828124-8.828126 0-4.875 3.953124-8.828124 8.828124-8.828124h52.964844c4.871094 0 8.828125 3.953124 8.828125 8.828124 0 4.871094-3.957031 8.828126-8.828125 8.828126zm0 0"
          fill="#fff"/>
</svg>