<?xml version="1.0" standalone="no"?><!DOCTYPE svg PUBLIC "-//W3C//DTD SVG 1.1//EN" "http://www.w3.org/Graphics/SVG/1.1/DTD/svg11.dtd"><svg t="1668395421896" class="icon" viewBox="0 0 1024 1024" version="1.1" xmlns="http://www.w3.org/2000/svg" p-id="184061" xmlns:xlink="http://www.w3.org/1999/xlink" width="200" height="200"><path d="M529.066667 921.6H17.066667c-10.24 0-17.066667-6.826667-17.066667-17.066667v-614.4c0-3.413333 3.413333-10.24 3.413333-13.653333l273.066667-273.066667c3.413333 0 10.24-3.413333 13.653333-3.413333h443.733334c10.24 0 17.066667 6.826667 17.066666 17.066667v512c0 10.24-6.826667 17.066667-17.066666 17.066666s-17.066667-6.826667-17.066667-17.066666V34.133333H296.96L34.133333 296.96V887.466667h494.933334c10.24 0 17.066667 6.826667 17.066666 17.066666s-6.826667 17.066667-17.066666 17.066667z" fill="#515151" p-id="184062"></path><path d="M290.133333 307.2h-273.066666C6.826667 307.2 0 300.373333 0 290.133333S6.826667 273.066667 17.066667 273.066667H273.066667V17.066667c0-10.24 6.826667-17.066667 17.066666-17.066667s17.066667 6.826667 17.066667 17.066667v273.066666c0 10.24-6.826667 17.066667-17.066667 17.066667zM768 921.6c-3.413333 0-6.826667 0-10.24-3.413333l-102.4-68.266667c-6.826667-6.826667-10.24-17.066667-3.413333-23.893333s17.066667-10.24 23.893333-3.413334l92.16 61.44 160.426667-160.426666c6.826667-6.826667 17.066667-6.826667 23.893333 0s6.826667 17.066667 0 23.893333l-170.666667 170.666667c-3.413333 0-10.24 3.413333-13.653333 3.413333z" fill="#515151" p-id="184063"></path><path d="M802.133333 1024c-122.88 0-221.866667-98.986667-221.866666-221.866667s98.986667-221.866667 221.866666-221.866666 221.866667 98.986667 221.866667 221.866666-98.986667 221.866667-221.866667 221.866667z m0-409.6c-102.4 0-187.733333 85.333333-187.733333 187.733333s85.333333 187.733333 187.733333 187.733334 187.733333-85.333333 187.733334-187.733334-85.333333-187.733333-187.733334-187.733333z" fill="#515151" p-id="184064"></path></svg>