<?xml version="1.0" standalone="no"?><!DOCTYPE svg PUBLIC "-//W3C//DTD SVG 1.1//EN" "http://www.w3.org/Graphics/SVG/1.1/DTD/svg11.dtd"><svg t="1668394688835" class="icon" viewBox="0 0 1024 1024" version="1.1" xmlns="http://www.w3.org/2000/svg" p-id="143776" xmlns:xlink="http://www.w3.org/1999/xlink" width="200" height="200"><path d="M1008 704v208H800v-32h176V704h32z m-960-0.032v176L224 880v32H16v-208.032h32zM1008 112V320h-32V144H800v-32h208zM224 112v32H48v175.968h-32V112H224z" fill="#515151" p-id="143777"></path><path d="M832 240A48 48 0 0 1 880 288v448a48 48 0 0 1-48 48H192A48 48 0 0 1 144 736V288A48 48 0 0 1 192 240z m16 160h-672V736a16 16 0 0 0 13.12 15.744L192 752h640a16 16 0 0 0 16-16V400zM518.272 640v32h-256v-32h256z m-64-128v32h-192v-32h192z m192 0v32h-128v-32h128zM832 272H192a16 16 0 0 0-16 16v80h672V288a16 16 0 0 0-13.12-15.744L832 272z" fill="#515151" p-id="143778"></path></svg>