<?xml version="1.0" standalone="no"?><!DOCTYPE svg PUBLIC "-//W3C//DTD SVG 1.1//EN" "http://www.w3.org/Graphics/SVG/1.1/DTD/svg11.dtd"><svg t="1668391679494" class="icon" viewBox="0 0 1024 1024" version="1.1" xmlns="http://www.w3.org/2000/svg" p-id="27846" xmlns:xlink="http://www.w3.org/1999/xlink" width="200" height="200"><path fill="#515151" d="M347.428571 347.428571h-36.571428a18.285714 18.285714 0 0 1 0-36.571428h36.571428a18.285714 18.285714 0 0 1 0 36.571428zM676.571429 347.428571h-182.857143a18.285714 18.285714 0 0 1 0-36.571428h182.857143a18.285714 18.285714 0 0 1 0 36.571428zM347.428571 530.285714h-36.571428a18.285714 18.285714 0 0 1 0-36.571428h36.571428a18.285714 18.285714 0 0 1 0 36.571428zM676.571429 530.285714h-182.857143a18.285714 18.285714 0 0 1 0-36.571428h182.857143a18.285714 18.285714 0 0 1 0 36.571428zM493.714286 713.142857h-182.857143a18.285714 18.285714 0 0 1 0-36.571428h182.857143a18.285714 18.285714 0 0 1 0 36.571428z" p-id="27847"></path><path fill="#515151" d="M530.285714 932.571429h-402.285714A18.285714 18.285714 0 0 1 109.714286 914.285714V109.714286a18.285714 18.285714 0 0 1 18.285714-18.285715h731.428571a18.285714 18.285714 0 0 1 18.285715 18.285715v438.857143a18.285714 18.285714 0 0 1-36.571429 0V128H146.285714v768h384a18.285714 18.285714 0 0 1 0 36.571429z" p-id="27848"></path><path fill="#515151" d="M731.428571 896a17.188571 17.188571 0 0 1-12.8-5.485714l-73.142857-73.142857a17.92 17.92 0 0 1 25.6-25.6L731.428571 851.748571l170.057143-169.691428a17.92 17.92 0 0 1 25.6 25.6l-182.857143 182.857143a17.188571 17.188571 0 0 1-12.8 5.485714z" p-id="27849"></path></svg>