<?xml version="1.0" standalone="no"?><!DOCTYPE svg PUBLIC "-//W3C//DTD SVG 1.1//EN" "http://www.w3.org/Graphics/SVG/1.1/DTD/svg11.dtd"><svg t="1668391955098" class="icon" viewBox="0 0 1024 1024" version="1.1" xmlns="http://www.w3.org/2000/svg" p-id="36649" xmlns:xlink="http://www.w3.org/1999/xlink" width="200" height="200"><path fill="#515151" d="M374.290103 196.769502l0 259.901355L114.388748 456.670857 114.388748 196.769502 374.290103 196.769502M419.315576 151.74403 69.363276 151.74403l0 349.9523 349.9523 0L419.315576 151.74403 419.315576 151.74403z" p-id="36650"></path><path fill="#515151" d="M374.290103 641.887232l0 259.901355L114.388748 901.788587 114.388748 641.887232 374.290103 641.887232M419.315576 596.86176 69.363276 596.86176l0 349.9523 349.9523 0L419.315576 596.86176 419.315576 596.86176z" p-id="36651"></path><path fill="#515151" d="M842.42813 641.887232l0 259.901355L582.526775 901.788587 582.526775 641.887232 842.42813 641.887232M887.453602 596.86176 537.501302 596.86176l0 349.9523 349.9523 0L887.453602 596.86176 887.453602 596.86176z" p-id="36652"></path><path fill="#515151" d="M712.478476 135.803989 896.256082 319.581596 712.478476 503.360226 528.698822 319.581596 712.478476 135.803989M712.478476 72.128761 465.024617 319.581596l247.453858 247.454882L959.932334 319.581596 712.478476 72.128761 712.478476 72.128761z" p-id="36653"></path></svg>