<?xml version="1.0" standalone="no"?><!DOCTYPE svg PUBLIC "-//W3C//DTD SVG 1.1//EN" "http://www.w3.org/Graphics/SVG/1.1/DTD/svg11.dtd"><svg t="1668391755434" class="icon" viewBox="0 0 1024 1024" version="1.1" xmlns="http://www.w3.org/2000/svg" p-id="30427" xmlns:xlink="http://www.w3.org/1999/xlink" width="200" height="200"><path fill="#515151" d="M138.666667 437.333333h275.2c12.8 0 21.333333-8.533333 21.333333-21.333333V140.8c0-12.8-8.533333-21.333333-21.333333-21.333333H138.666667c-12.8 0-21.333333 8.533333-21.333334 21.333333v275.2c0 12.8 8.533333 21.333333 21.333334 21.333333z m21.333333-275.2h232.533333v232.533334H160V162.133333zM413.866667 584.533333H138.666667c-12.8 0-21.333333 8.533333-21.333334 21.333334v275.2c0 12.8 8.533333 21.333333 21.333334 21.333333h275.2c12.8 0 21.333333-8.533333 21.333333-21.333333V605.866667c0-12.8-10.666667-21.333333-21.333333-21.333334z m-21.333334 275.2H160V627.2h232.533333v232.533333zM887.466667 119.466667h-277.333334c-12.8 0-21.333333 8.533333-21.333333 21.333333v275.2c0 12.8 8.533333 21.333333 21.333333 21.333333h275.2c12.8 0 21.333333-8.533333 21.333334-21.333333V140.8c2.133333-12.8-8.533333-21.333333-19.2-21.333333z m-21.333334 275.2h-234.666666V162.133333h232.533333v232.533334zM512 443.733333c12.8 0 21.333333-8.533333 21.333333-21.333333V140.8c0-12.8-8.533333-21.333333-21.333333-21.333333s-21.333333 8.533333-21.333333 21.333333v281.6c0 10.666667 8.533333 21.333333 21.333333 21.333333zM512 580.266667c-12.8 0-21.333333 8.533333-21.333333 21.333333v281.6c0 12.8 8.533333 21.333333 21.333333 21.333333s21.333333-8.533333 21.333333-21.333333V601.6c0-10.666667-8.533333-21.333333-21.333333-21.333333zM631.466667 580.266667c-12.8 0-21.333333 8.533333-21.333334 21.333333v281.6c0 12.8 8.533333 21.333333 21.333334 21.333333s21.333333-8.533333 21.333333-21.333333V601.6c0-10.666667-10.666667-21.333333-21.333333-21.333333zM748.8 693.333333c-12.8 0-21.333333 8.533333-21.333333 21.333334v168.533333c0 12.8 8.533333 21.333333 21.333333 21.333333s21.333333-8.533333 21.333333-21.333333v-168.533333c0-12.8-10.666667-21.333333-21.333333-21.333334zM887.466667 580.266667c-12.8 0-21.333333 8.533333-21.333334 21.333333v281.6c0 12.8 8.533333 21.333333 21.333334 21.333333s21.333333-8.533333 21.333333-21.333333V601.6c0-10.666667-10.666667-21.333333-21.333333-21.333333zM887.466667 492.8H136.533333c-12.8 0-21.333333 8.533333-21.333333 21.333333s8.533333 21.333333 21.333333 21.333334h748.8c12.8 0 21.333333-8.533333 21.333334-21.333334s-8.533333-21.333333-19.2-21.333333z" p-id="30428"></path><path fill="#515151" d="M748.8 614.4m-32 0a32 32 0 1 0 64 0 32 32 0 1 0-64 0Z" p-id="30429"></path></svg>