<?xml version="1.0" standalone="no"?><!DOCTYPE svg PUBLIC "-//W3C//DTD SVG 1.1//EN" "http://www.w3.org/Graphics/SVG/1.1/DTD/svg11.dtd"><svg t="1668394274893" class="icon" viewBox="0 0 1024 1024" version="1.1" xmlns="http://www.w3.org/2000/svg" p-id="116255" xmlns:xlink="http://www.w3.org/1999/xlink" width="200" height="200"><path d="M874.666667 938.666667H149.333333c-36.266667 0-64-27.733333-64-64V277.333333c0-36.266667 27.733333-64 64-64h725.333334c36.266667 0 64 27.733333 64 64v597.333334c0 36.266667-27.733333 64-64 64zM149.333333 256c-12.8 0-21.333333 8.533333-21.333333 21.333333v597.333334c0 12.8 8.533333 21.333333 21.333333 21.333333h725.333334c12.8 0 21.333333-8.533333 21.333333-21.333333V277.333333c0-12.8-8.533333-21.333333-21.333333-21.333333H149.333333z" p-id="116256" fill="#515151"></path><path d="M362.666667 341.333333c-12.8 0-21.333333-8.533333-21.333334-21.333333V149.333333c0-12.8 8.533333-21.333333 21.333334-21.333333s21.333333 8.533333 21.333333 21.333333v170.666667c0 12.8-8.533333 21.333333-21.333333 21.333333zM746.666667 512H490.666667c-12.8 0-21.333333-8.533333-21.333334-21.333333s8.533333-21.333333 21.333334-21.333334h256c12.8 0 21.333333 8.533333 21.333333 21.333334s-8.533333 21.333333-21.333333 21.333333zM746.666667 725.333333H490.666667c-12.8 0-21.333333-8.533333-21.333334-21.333333s8.533333-21.333333 21.333334-21.333333h256c12.8 0 21.333333 8.533333 21.333333 21.333333s-8.533333 21.333333-21.333333 21.333333zM661.333333 341.333333c-12.8 0-21.333333-8.533333-21.333333-21.333333V149.333333c0-12.8 8.533333-21.333333 21.333333-21.333333s21.333333 8.533333 21.333334 21.333333v170.666667c0 12.8-8.533333 21.333333-21.333334 21.333333zM341.333333 789.333333c-46.933333 0-85.333333-38.4-85.333333-85.333333s38.4-85.333333 85.333333-85.333333 85.333333 38.4 85.333334 85.333333-38.4 85.333333-85.333334 85.333333z m0-128c-23.466667 0-42.666667 19.2-42.666666 42.666667s19.2 42.666667 42.666666 42.666667 42.666667-19.2 42.666667-42.666667-19.2-42.666667-42.666667-42.666667zM324.266667 554.666667c-6.4 0-10.666667-2.133333-14.933334-6.4l-46.933333-49.066667c-8.533333-8.533333-8.533333-21.333333 0-29.866667 8.533333-8.533333 21.333333-8.533333 29.866667 0l32 34.133334 66.133333-68.266667c8.533333-8.533333 21.333333-8.533333 29.866667 0 8.533333 8.533333 8.533333 21.333333 0 29.866667l-81.066667 85.333333c-2.133333 2.133333-8.533333 4.266667-14.933333 4.266667z" p-id="116257" fill="#515151"></path></svg>